<svg width="14" height="14" viewBox="0 0 14 14" fill="none" xmlns="http://www.w3.org/2000/svg">
<path d="M2.9026 10.4002C3.46927 9.96683 4.1026 9.62505 4.8026 9.37483C5.5026 9.12505 6.23594 9.00016 7.0026 9.00016C7.76927 9.00016 8.5026 9.12505 9.2026 9.37483C9.9026 9.62505 10.5359 9.96683 11.1026 10.4002C11.4915 9.94461 11.7944 9.42794 12.0113 8.85016C12.2277 8.27238 12.3359 7.65572 12.3359 7.00016C12.3359 5.52238 11.8166 4.26394 10.7779 3.22483C9.73883 2.18616 8.48038 1.66683 7.0026 1.66683C5.52483 1.66683 4.2666 2.18616 3.22794 3.22483C2.18883 4.26394 1.66927 5.52238 1.66927 7.00016C1.66927 7.65572 1.77772 8.27238 1.9946 8.85016C2.21105 9.42794 2.51372 9.94461 2.9026 10.4002ZM7.0026 7.66683C6.34705 7.66683 5.79416 7.44194 5.34394 6.99216C4.89416 6.54194 4.66927 5.98905 4.66927 5.3335C4.66927 4.67794 4.89416 4.12505 5.34394 3.67483C5.79416 3.22505 6.34705 3.00016 7.0026 3.00016C7.65816 3.00016 8.21105 3.22505 8.66127 3.67483C9.11105 4.12505 9.33594 4.67794 9.33594 5.3335C9.33594 5.98905 9.11105 6.54194 8.66127 6.99216C8.21105 7.44194 7.65816 7.66683 7.0026 7.66683ZM7.0026 13.6668C6.08038 13.6668 5.21372 13.4917 4.4026 13.1415C3.59149 12.7917 2.88594 12.3168 2.28594 11.7168C1.68594 11.1168 1.21105 10.4113 0.861271 9.60016C0.511049 8.78905 0.335938 7.92238 0.335938 7.00016C0.335938 6.07794 0.511049 5.21127 0.861271 4.40016C1.21105 3.58905 1.68594 2.8835 2.28594 2.2835C2.88594 1.6835 3.59149 1.20838 4.4026 0.858163C5.21372 0.508385 6.08038 0.333496 7.0026 0.333496C7.92483 0.333496 8.79149 0.508385 9.6026 0.858163C10.4137 1.20838 11.1193 1.6835 11.7193 2.2835C12.3193 2.8835 12.7942 3.58905 13.1439 4.40016C13.4942 5.21127 13.6693 6.07794 13.6693 7.00016C13.6693 7.92238 13.4942 8.78905 13.1439 9.60016C12.7942 10.4113 12.3193 11.1168 11.7193 11.7168C11.1193 12.3168 10.4137 12.7917 9.6026 13.1415C8.79149 13.4917 7.92483 13.6668 7.0026 13.6668ZM7.0026 12.3335C7.59149 12.3335 8.14705 12.2475 8.66927 12.0755C9.19149 11.9031 9.66927 11.6557 10.1026 11.3335C9.66927 11.0113 9.19149 10.7639 8.66927 10.5915C8.14705 10.4195 7.59149 10.3335 7.0026 10.3335C6.41371 10.3335 5.85816 10.4195 5.33594 10.5915C4.81371 10.7639 4.33594 11.0113 3.9026 11.3335C4.33594 11.6557 4.81371 11.9031 5.33594 12.0755C5.85816 12.2475 6.41371 12.3335 7.0026 12.3335ZM7.0026 6.3335C7.29149 6.3335 7.53038 6.23905 7.71927 6.05016C7.90816 5.86127 8.0026 5.62238 8.0026 5.3335C8.0026 5.04461 7.90816 4.80572 7.71927 4.61683C7.53038 4.42794 7.29149 4.3335 7.0026 4.3335C6.71372 4.3335 6.47483 4.42794 6.28594 4.61683C6.09705 4.80572 6.0026 5.04461 6.0026 5.3335C6.0026 5.62238 6.09705 5.86127 6.28594 6.05016C6.47483 6.23905 6.71372 6.3335 7.0026 6.3335Z" fill="white"/>
</svg>
