<svg width="14" height="14" viewBox="0 0 14 14" fill="none" xmlns="http://www.w3.org/2000/svg">
<path d="M6.5651 12.917C6.4401 12.792 6.3776 12.6425 6.3776 12.4687C6.3776 12.2953 6.43316 12.1462 6.54427 12.0212L10.9609 7.62533H1.27344C1.10677 7.62533 0.960937 7.56616 0.835937 7.44782C0.710937 7.33005 0.648438 7.18088 0.648438 7.00033C0.648438 6.81977 0.710937 6.67033 0.835937 6.55199C0.960937 6.43421 1.10677 6.37533 1.27344 6.37533H10.9609L6.54427 1.97949C6.43316 1.85449 6.3776 1.70533 6.3776 1.53199C6.3776 1.3581 6.4401 1.20866 6.5651 1.08366C6.6901 0.972548 6.83594 0.916992 7.0026 0.916992C7.16927 0.916992 7.3151 0.972548 7.4401 1.08366L12.8151 6.47949C12.8984 6.54894 12.9576 6.62866 12.9926 6.71866C13.027 6.80921 13.0443 6.9031 13.0443 7.00033C13.0443 7.09755 13.027 7.19116 12.9926 7.28116C12.9576 7.37171 12.8984 7.45171 12.8151 7.52116L7.4401 12.917C7.3151 13.0281 7.16927 13.0837 7.0026 13.0837C6.83594 13.0837 6.6901 13.0281 6.5651 12.917Z" fill="white"/>
</svg>
