<svg width="14" height="14" viewBox="0 0 14 14" fill="none" xmlns="http://www.w3.org/2000/svg">
<path d="M6.2526 12.9166L0.877604 7.52078C0.794271 7.45133 0.735382 7.37133 0.700938 7.28078C0.665938 7.19078 0.648438 7.09717 0.648438 6.99995C0.648438 6.90272 0.665938 6.80883 0.700938 6.71828C0.735382 6.62828 0.794271 6.54856 0.877604 6.47911L6.2526 1.08328C6.3776 0.972169 6.52344 0.913002 6.6901 0.90578C6.85677 0.899113 7.0026 0.95828 7.1276 1.08328C7.2526 1.20828 7.31844 1.35411 7.3251 1.52078C7.33233 1.68745 7.27344 1.84022 7.14844 1.97911L2.73177 6.37495H12.4193C12.5859 6.37495 12.7318 6.43383 12.8568 6.55161C12.9818 6.66995 13.0443 6.81939 13.0443 6.99995C13.0443 7.1805 12.9818 7.32967 12.8568 7.44745C12.7318 7.56578 12.5859 7.62495 12.4193 7.62495H2.73177L7.14844 12.0416C7.25955 12.1527 7.31844 12.2949 7.3251 12.4683C7.33233 12.6422 7.27344 12.7916 7.14844 12.9166C7.02344 13.0416 6.87427 13.1041 6.70094 13.1041C6.52705 13.1041 6.3776 13.0416 6.2526 12.9166Z" fill="white"/>
</svg>
