<svg width="16" height="16" viewBox="0 0 16 16" fill="none" xmlns="http://www.w3.org/2000/svg">
<path d="M7.3 15.3003C7.11667 15.117 7.02067 14.8836 7.012 14.6003C7.004 14.317 7.09167 14.0836 7.275 13.9003L12.175 9.00029H1C0.716667 9.00029 0.479 8.90429 0.287 8.71229C0.0956668 8.52096 0 8.28363 0 8.00029C0 7.71696 0.0956668 7.47929 0.287 7.28729C0.479 7.09596 0.716667 7.00029 1 7.00029H12.175L7.275 2.10029C7.09167 1.91696 7.004 1.68363 7.012 1.40029C7.02067 1.11696 7.11667 0.883626 7.3 0.700293C7.48333 0.516959 7.71667 0.425293 8 0.425293C8.28333 0.425293 8.51667 0.516959 8.7 0.700293L15.3 7.30029C15.4 7.38363 15.471 7.48763 15.513 7.61229C15.5543 7.73763 15.575 7.86696 15.575 8.00029C15.575 8.13363 15.5543 8.25863 15.513 8.37529C15.471 8.49196 15.4 8.60029 15.3 8.70029L8.7 15.3003C8.51667 15.4836 8.28333 15.5753 8 15.5753C7.71667 15.5753 7.48333 15.4836 7.3 15.3003Z" fill="#22A6AB"/>
</svg>
