<svg width="41" height="40" viewBox="0 0 41 40" fill="none" xmlns="http://www.w3.org/2000/svg">
<path d="M34.1856 13.0332L21.3523 20.4666C20.8356 20.7666 20.1856 20.7666 19.6523 20.4666L6.81898 13.0332C5.90231 12.4999 5.66898 11.2499 6.36898 10.4666C6.85231 9.91657 7.40231 9.46657 7.98564 9.1499L17.019 4.1499C18.9523 3.06657 22.0856 3.06657 24.019 4.1499L33.0523 9.1499C33.6357 9.46657 34.1856 9.93324 34.669 10.4666C35.3356 11.2499 35.1023 12.4999 34.1856 13.0332Z" fill="white"/>
<path d="M19.5521 23.5666V34.9333C19.5521 36.2 18.2687 37.0333 17.1354 36.4833C13.7021 34.8 7.91875 31.65 7.91875 31.65C5.88542 30.5 4.21875 27.6 4.21875 25.2166V16.6166C4.21875 15.3 5.60208 14.4666 6.73542 15.1166L18.7188 22.0666C19.2188 22.3833 19.5521 22.95 19.5521 23.5666Z" fill="white"/>
<path d="M21.4531 23.5666V34.9333C21.4531 36.2 22.7365 37.0333 23.8698 36.4833C27.3031 34.8 33.0865 31.65 33.0865 31.65C35.1198 30.5 36.7865 27.6 36.7865 25.2166V16.6166C36.7865 15.3 35.4031 14.4666 34.2698 15.1166L22.2865 22.0666C21.7865 22.3833 21.4531 22.95 21.4531 23.5666Z" fill="white"/>
</svg>
