<svg width="12" height="12" viewBox="0 0 12 12" fill="none" xmlns="http://www.w3.org/2000/svg">
<path d="M11.3 12C9.86667 12 8.46956 11.6804 7.10867 11.0413C5.74733 10.4027 4.54178 9.55822 3.492 8.508C2.44178 7.45822 1.59733 6.25267 0.958667 4.89133C0.319556 3.53044 0 2.13333 0 0.7C0 0.5 0.0666666 0.333333 0.2 0.2C0.333333 0.0666666 0.5 0 0.7 0H3.4C3.55556 0 3.69444 0.0499999 3.81667 0.15C3.93889 0.25 4.01111 0.377778 4.03333 0.533333L4.46667 2.86667C4.48889 3.02222 4.48622 3.16378 4.45867 3.29133C4.43067 3.41933 4.36667 3.53333 4.26667 3.63333L2.65 5.26667C3.11667 6.06667 3.70289 6.81667 4.40867 7.51667C5.114 8.21667 5.88889 8.82222 6.73333 9.33333L8.3 7.76667C8.4 7.66667 8.53067 7.59156 8.692 7.54133C8.85289 7.49156 9.01111 7.47778 9.16667 7.5L11.4667 7.96667C11.6222 8 11.75 8.07489 11.85 8.19133C11.95 8.30822 12 8.44444 12 8.6V11.3C12 11.5 11.9333 11.6667 11.8 11.8C11.6667 11.9333 11.5 12 11.3 12ZM2.01667 4L3.11667 2.9L2.83333 1.33333H1.35C1.40556 1.78889 1.48333 2.23889 1.58333 2.68333C1.68333 3.12778 1.82778 3.56667 2.01667 4ZM10.6667 10.6333V9.16667L9.1 8.85L7.98333 9.96667C8.41667 10.1556 8.85844 10.3056 9.30867 10.4167C9.75844 10.5278 10.2111 10.6 10.6667 10.6333Z" fill="#F8D357"/>
</svg>
