<svg width="15" height="15" viewBox="0 0 15 15" fill="none" xmlns="http://www.w3.org/2000/svg">
<path d="M6.40521 10.5668L11.1052 5.86683L10.1719 4.9335L6.40521 8.70016L4.50521 6.80016L3.57187 7.7335L6.40521 10.5668ZM7.33854 14.1668C6.41632 14.1668 5.54965 13.9918 4.73854 13.6418C3.92743 13.2918 3.22187 12.8168 2.62187 12.2168C2.02187 11.6168 1.54688 10.9113 1.19687 10.1002C0.846875 9.28905 0.671875 8.42238 0.671875 7.50016C0.671875 6.57794 0.846875 5.71127 1.19687 4.90016C1.54688 4.08905 2.02187 3.3835 2.62187 2.7835C3.22187 2.1835 3.92743 1.7085 4.73854 1.3585C5.54965 1.0085 6.41632 0.833496 7.33854 0.833496C8.26076 0.833496 9.12743 1.0085 9.93854 1.3585C10.7497 1.7085 11.4552 2.1835 12.0552 2.7835C12.6552 3.3835 13.1302 4.08905 13.4802 4.90016C13.8302 5.71127 14.0052 6.57794 14.0052 7.50016C14.0052 8.42238 13.8302 9.28905 13.4802 10.1002C13.1302 10.9113 12.6552 11.6168 12.0552 12.2168C11.4552 12.8168 10.7497 13.2918 9.93854 13.6418C9.12743 13.9918 8.26076 14.1668 7.33854 14.1668ZM7.33854 12.8335C8.82743 12.8335 10.0885 12.3168 11.1219 11.2835C12.1552 10.2502 12.6719 8.98905 12.6719 7.50016C12.6719 6.01127 12.1552 4.75016 11.1219 3.71683C10.0885 2.6835 8.82743 2.16683 7.33854 2.16683C5.84965 2.16683 4.58854 2.6835 3.55521 3.71683C2.52188 4.75016 2.00521 6.01127 2.00521 7.50016C2.00521 8.98905 2.52188 10.2502 3.55521 11.2835C4.58854 12.3168 5.84965 12.8335 7.33854 12.8335Z" fill="#2BD35A"/>
</svg>
