<svg width="21" height="20" viewBox="0 0 21 20" fill="none" xmlns="http://www.w3.org/2000/svg">
<path d="M8.76406 11.8L6.61406 9.65C6.43073 9.46667 6.1974 9.375 5.91406 9.375C5.63073 9.375 5.3974 9.46667 5.21406 9.65C5.03073 9.83333 4.93906 10.0667 4.93906 10.35C4.93906 10.6333 5.03073 10.8667 5.21406 11.05L8.06406 13.9C8.26406 14.1 8.4974 14.2 8.76406 14.2C9.03073 14.2 9.26406 14.1 9.46406 13.9L15.1141 8.25C15.2974 8.06667 15.3891 7.83333 15.3891 7.55C15.3891 7.26667 15.2974 7.03333 15.1141 6.85C14.9307 6.66667 14.6974 6.575 14.4141 6.575C14.1307 6.575 13.8974 6.66667 13.7141 6.85L8.76406 11.8ZM10.1641 20C8.78073 20 7.48073 19.7375 6.26406 19.2125C5.0474 18.6875 3.98906 17.975 3.08906 17.075C2.18906 16.175 1.47656 15.1167 0.951563 13.9C0.426562 12.6833 0.164062 11.3833 0.164062 10C0.164062 8.61667 0.426562 7.31667 0.951563 6.1C1.47656 4.88333 2.18906 3.825 3.08906 2.925C3.98906 2.025 5.0474 1.3125 6.26406 0.7875C7.48073 0.2625 8.78073 0 10.1641 0C11.5474 0 12.8474 0.2625 14.0641 0.7875C15.2807 1.3125 16.3391 2.025 17.2391 2.925C18.1391 3.825 18.8516 4.88333 19.3766 6.1C19.9016 7.31667 20.1641 8.61667 20.1641 10C20.1641 11.3833 19.9016 12.6833 19.3766 13.9C18.8516 15.1167 18.1391 16.175 17.2391 17.075C16.3391 17.975 15.2807 18.6875 14.0641 19.2125C12.8474 19.7375 11.5474 20 10.1641 20ZM10.1641 18C12.3974 18 14.2891 17.225 15.8391 15.675C17.3891 14.125 18.1641 12.2333 18.1641 10C18.1641 7.76667 17.3891 5.875 15.8391 4.325C14.2891 2.775 12.3974 2 10.1641 2C7.93073 2 6.03906 2.775 4.48906 4.325C2.93906 5.875 2.16406 7.76667 2.16406 10C2.16406 12.2333 2.93906 14.125 4.48906 15.675C6.03906 17.225 7.93073 18 10.1641 18Z" fill="white"/>
</svg>
