<svg width="41" height="40" viewBox="0 0 41 40" fill="none" xmlns="http://www.w3.org/2000/svg">
<mask id="mask0_1_9087" style="mask-type:alpha" maskUnits="userSpaceOnUse" x="0" y="0" width="41" height="40">
<rect x="0.5" width="40" height="40" fill="#D9D9D9"/>
</mask>
<g mask="url(#mask0_1_9087)">
<path d="M8.83594 26.6667H12.1693C12.1693 25.75 11.8429 24.9653 11.1901 24.3125C10.5373 23.6597 9.7526 23.3333 8.83594 23.3333V26.6667ZM15.9609 26.6667C16.2943 26.6667 16.579 26.5417 16.8151 26.2917C17.0512 26.0417 17.1415 25.7639 17.0859 25.4583C16.8082 23.625 16.0234 22.0625 14.7318 20.7708C13.4401 19.4792 11.8776 18.6944 10.0443 18.4167C9.73872 18.3611 9.46094 18.4444 9.21094 18.6667C8.96094 18.8889 8.83594 19.1806 8.83594 19.5417C8.83594 19.8472 8.94705 20.1319 9.16927 20.3958C9.39149 20.6597 9.68316 20.8194 10.0443 20.875C11.2109 21.0972 12.2109 21.625 13.0443 22.4583C13.8776 23.2917 14.4054 24.2917 14.6276 25.4583C14.6832 25.8194 14.8429 26.1111 15.1068 26.3333C15.3707 26.5556 15.6554 26.6667 15.9609 26.6667ZM20.9609 26.6667C21.2943 26.6667 21.579 26.5417 21.8151 26.2917C22.0512 26.0417 22.1554 25.7639 22.1276 25.4583C21.822 22.2361 20.5373 19.4931 18.2734 17.2292C16.0095 14.9653 13.2665 13.6806 10.0443 13.375C9.73872 13.3472 9.46094 13.4444 9.21094 13.6667C8.96094 13.8889 8.83594 14.1806 8.83594 14.5417C8.83594 14.8472 8.95399 15.125 9.1901 15.375C9.42622 15.625 9.71094 15.7778 10.0443 15.8333C12.5998 16.1111 14.7734 17.1458 16.5651 18.9375C18.3568 20.7292 19.3915 22.9028 19.6693 25.4583C19.7248 25.7917 19.8707 26.0764 20.1068 26.3125C20.3429 26.5486 20.6276 26.6667 20.9609 26.6667ZM15.5026 35C15.0304 35 14.6345 34.8403 14.3151 34.5208C13.9957 34.2014 13.8359 33.8056 13.8359 33.3333V31.6667H7.16927C6.2526 31.6667 5.46788 31.3403 4.8151 30.6875C4.16233 30.0347 3.83594 29.25 3.83594 28.3333V8.33333C3.83594 7.41667 4.16233 6.63194 4.8151 5.97917C5.46788 5.32639 6.2526 5 7.16927 5H33.8359C34.7526 5 35.5373 5.32639 36.1901 5.97917C36.8429 6.63194 37.1693 7.41667 37.1693 8.33333V28.3333C37.1693 29.25 36.8429 30.0347 36.1901 30.6875C35.5373 31.3403 34.7526 31.6667 33.8359 31.6667H27.1693V33.3333C27.1693 33.8056 27.0095 34.2014 26.6901 34.5208C26.3707 34.8403 25.9748 35 25.5026 35H15.5026ZM7.16927 28.3333H33.8359V8.33333H7.16927V28.3333Z" fill="white"/>
</g>
</svg>
