<svg width="41" height="40" viewBox="0 0 41 40" fill="none" xmlns="http://www.w3.org/2000/svg">
<path d="M27.4859 3.3335H13.5193C8.16927 3.3335 3.83594 7.66683 3.83594 13.0168V17.0835C3.83594 18.0002 4.58594 18.7502 5.5026 18.7502H35.5026C36.4193 18.7502 37.1693 18.0002 37.1693 17.0835V13.0168C37.1693 7.66683 32.8359 3.3335 27.4859 3.3335ZM11.7526 13.7502C11.7526 14.4335 11.1859 15.0002 10.5026 15.0002C9.81927 15.0002 9.2526 14.4335 9.2526 13.7502V10.4168C9.2526 9.7335 9.81927 9.16683 10.5026 9.16683C11.1859 9.16683 11.7526 9.7335 11.7526 10.4168V13.7502ZM18.4193 13.7502C18.4193 14.4335 17.8526 15.0002 17.1693 15.0002C16.4859 15.0002 15.9193 14.4335 15.9193 13.7502V10.4168C15.9193 9.7335 16.4859 9.16683 17.1693 9.16683C17.8526 9.16683 18.4193 9.7335 18.4193 10.4168V13.7502ZM30.5026 13.3335H23.8359C23.1526 13.3335 22.5859 12.7668 22.5859 12.0835C22.5859 11.4002 23.1526 10.8335 23.8359 10.8335H30.5026C31.1859 10.8335 31.7526 11.4002 31.7526 12.0835C31.7526 12.7668 31.1859 13.3335 30.5026 13.3335Z" fill="white"/>
<path d="M3.83594 26.9833C3.83594 32.3333 8.16927 36.6667 13.5193 36.6667H27.4693C32.8359 36.6667 37.1693 32.3333 37.1693 26.9833V22.9167C37.1693 22 36.4193 21.25 35.5026 21.25H5.5026C4.58594 21.25 3.83594 22 3.83594 22.9167V26.9833ZM23.8359 27.0833H30.5026C31.1859 27.0833 31.7526 27.65 31.7526 28.3333C31.7526 29.0167 31.1859 29.5833 30.5026 29.5833H23.8359C23.1526 29.5833 22.5859 29.0167 22.5859 28.3333C22.5859 27.65 23.1526 27.0833 23.8359 27.0833ZM15.9193 26.6667C15.9193 25.9833 16.4859 25.4167 17.1693 25.4167C17.8526 25.4167 18.4193 25.9833 18.4193 26.6667V30C18.4193 30.6833 17.8526 31.25 17.1693 31.25C16.4859 31.25 15.9193 30.6833 15.9193 30V26.6667ZM9.2526 26.6667C9.2526 25.9833 9.81927 25.4167 10.5026 25.4167C11.1859 25.4167 11.7526 25.9833 11.7526 26.6667V30C11.7526 30.6833 11.1859 31.25 10.5026 31.25C9.81927 31.25 9.2526 30.6833 9.2526 30V26.6667Z" fill="white"/>
</svg>
