<svg width="8" height="5" viewBox="0 0 8 5" fill="none" xmlns="http://www.w3.org/2000/svg">
<path d="M3.9985 4.96649C3.90961 4.96649 3.82627 4.95249 3.7485 4.92449C3.67072 4.89693 3.5985 4.84982 3.53183 4.78315L0.448495 1.69982C0.326273 1.5776 0.268051 1.42471 0.273829 1.24116C0.279162 1.05804 0.34294 0.905377 0.465162 0.783155C0.587384 0.660933 0.74294 0.599821 0.931829 0.599821C1.12072 0.599821 1.27627 0.660933 1.3985 0.783155L3.9985 3.38315L6.61516 0.766488C6.73738 0.644266 6.89027 0.585821 7.07383 0.591155C7.25694 0.596933 7.40961 0.660933 7.53183 0.783155C7.65405 0.905377 7.71516 1.06093 7.71516 1.24982C7.71516 1.43871 7.65405 1.59427 7.53183 1.71649L4.46516 4.78315C4.3985 4.84982 4.32627 4.89693 4.2485 4.92449C4.17072 4.95249 4.08738 4.96649 3.9985 4.96649Z" fill="white" fill-opacity="0.8"/>
</svg>
