<svg width="188" height="188" viewBox="0 0 188 188" fill="none" xmlns="http://www.w3.org/2000/svg">
<path d="M72.2218 22.2628C73.0792 20.8613 74.8843 20.3776 76.3275 21.1626L84.6247 25.6758C85.7482 26.2869 87.1322 26.1414 88.1041 25.3101L95.2817 19.1705C96.5301 18.1026 98.3964 18.2004 99.5263 19.3929L106.023 26.2491C106.902 27.1775 108.264 27.4668 109.445 26.9765L118.168 23.3554C119.686 22.7256 121.43 23.3953 122.137 24.8787L126.196 33.4068C126.746 34.5616 127.951 35.2574 129.226 35.1561L138.642 34.4079C140.279 34.2778 141.732 35.4539 141.945 37.0829L143.171 46.4482C143.337 47.7163 144.268 48.7505 145.512 49.0481L154.698 51.2461C156.295 51.6284 157.313 53.1958 157.013 54.8109L155.284 64.0966C155.05 65.354 155.616 66.6253 156.707 67.2927L164.764 72.2217C166.166 73.0791 166.65 74.8843 165.865 76.3274L161.351 84.6246C160.74 85.7481 160.886 87.1321 161.717 88.104L167.857 95.2816C168.925 96.53 168.827 98.3963 167.634 99.5263L160.778 106.023C159.85 106.902 159.56 108.264 160.051 109.445L163.672 118.168C164.302 119.686 163.632 121.43 162.149 122.137L153.62 126.196C152.466 126.746 151.77 127.951 151.871 129.226L152.619 138.642C152.749 140.279 151.573 141.732 149.944 141.945L140.579 143.171C139.311 143.337 138.277 144.268 137.979 145.512L135.781 154.698C135.399 156.295 133.831 157.313 132.216 157.013L122.931 155.284C121.673 155.05 120.402 155.616 119.735 156.707L114.806 164.764C113.948 166.166 112.143 166.65 110.7 165.865L102.403 161.351C101.279 160.74 99.8951 160.886 98.9232 161.717L91.7457 167.857C90.4973 168.925 88.631 168.827 87.501 167.634L81.0045 160.778C80.1249 159.85 78.7636 159.56 77.5824 160.051L68.8589 163.672C67.3416 164.302 65.5969 163.632 64.8907 162.148L60.8309 153.62C60.2812 152.466 59.076 151.77 57.8011 151.871L48.3856 152.619C46.7479 152.749 45.2955 151.573 45.0823 149.944L43.8565 140.579C43.6905 139.311 42.7593 138.277 41.5155 137.979L32.3296 135.781C30.7319 135.399 29.714 133.831 30.0146 132.216L31.7429 122.931C31.9769 121.673 31.4109 120.402 30.3199 119.734L22.2628 114.805C20.8614 113.948 20.3777 112.143 21.1627 110.7L25.6758 102.403C26.2869 101.279 26.1415 99.895 25.3101 98.9231L19.1706 91.7456C18.1027 90.4972 18.2005 88.6309 19.393 87.5009L26.2492 81.0044C27.1776 80.1248 27.4669 78.7635 26.9766 77.5823L23.3555 68.8588C22.7257 67.3415 23.3954 65.5968 24.8788 64.8906L33.4069 60.8308C34.5617 60.2811 35.2575 59.0759 35.1562 57.801L34.408 48.3855C34.2779 46.7478 35.454 45.2954 37.083 45.0822L46.4483 43.8564C47.7164 43.6904 48.7506 42.7592 49.0482 41.5154L51.2462 32.3296C51.6285 30.7318 53.1959 29.7139 54.811 30.0146L64.0967 31.7428C65.3541 31.9768 66.6254 31.4108 67.2928 30.3198L72.2218 22.2628Z" fill="#FF9B3E"/>
<path d="M63.6835 70.4954C61.9075 70.9713 60.3864 70.8487 59.12 70.1277C57.8537 69.4066 56.9746 68.1283 56.4828 66.2927L54.6048 59.284L57.5012 58.5079L59.3505 65.4093C59.6699 66.6013 60.1442 67.394 60.7734 67.7875C61.4026 68.181 62.1582 68.2596 63.0403 68.0233C63.9223 67.7869 64.5374 67.3411 64.8856 66.6857C65.2338 66.0302 65.2482 65.1066 64.9288 63.9146L63.0796 57.0132L65.9403 56.2467L67.8182 63.2554C68.3101 65.091 68.1879 66.6376 67.4518 67.8952C66.7156 69.1528 65.4595 70.0195 63.6835 70.4954ZM72.156 67.9953L68.8025 55.4798L74.2199 54.0282C75.3403 53.728 76.3553 53.654 77.2648 53.8064C78.1712 53.9468 78.9359 54.2976 79.5589 54.8588C80.182 55.4201 80.6197 56.1715 80.872 57.1131C81.1211 58.0429 81.1162 58.9065 80.8572 59.7041C80.5983 60.5017 80.113 61.1938 79.4015 61.7805C78.6868 62.3553 77.7692 62.7928 76.6488 63.093L72.8405 64.1134L73.7781 62.4633L75.0524 67.2192L72.156 67.9953ZM73.8643 62.7851L72.2081 61.7533L75.8555 60.776C76.7495 60.5365 77.3658 60.1669 77.7047 59.6673C78.0435 59.1677 78.1219 58.5782 77.9398 57.8988C77.7546 57.2075 77.3903 56.7302 76.8471 56.4669C76.3039 56.2037 75.5853 56.1918 74.6913 56.4314L71.044 57.4087L71.9624 55.687L73.8643 62.7851ZM92.9071 62.435L90.1859 52.2796L86.181 53.3527L85.5486 50.9927L96.455 48.0703L97.0873 50.4304L93.0824 51.5035L95.8035 61.6589L92.9071 62.435ZM107.329 58.8007C106.339 59.0658 105.378 59.1508 104.446 59.0557C103.525 58.9575 102.677 58.6994 101.901 58.2814C101.136 57.8602 100.476 57.3026 99.9193 56.6085C99.3748 55.9113 98.978 55.0978 98.7289 54.1681C98.4797 53.2383 98.4167 52.3354 98.5396 51.4593C98.6745 50.58 98.9736 49.7653 99.4369 49.0151C99.9002 48.265 100.506 47.6172 101.254 47.0718C102.002 46.5265 102.865 46.1228 103.842 45.8609C104.832 45.5958 105.781 45.514 106.689 45.6155C107.61 45.7137 108.452 45.9734 109.217 46.3946C109.993 46.8126 110.66 47.3686 111.216 48.0627C111.769 48.7448 112.172 49.5567 112.424 50.4984C112.673 51.4281 112.732 52.3386 112.601 53.2298C112.466 54.1091 112.167 54.9238 111.703 55.6739C111.249 56.409 110.647 57.0492 109.899 57.5946C109.163 58.1368 108.306 58.5388 107.329 58.8007ZM106.65 56.3382C107.21 56.188 107.697 55.9554 108.111 55.6401C108.536 55.3216 108.88 54.9357 109.142 54.4823C109.404 54.0289 109.564 53.5323 109.624 52.9925C109.696 52.4495 109.652 51.88 109.492 51.284C109.332 50.6881 109.086 50.1729 108.752 49.7385C108.431 49.3009 108.043 48.9512 107.59 48.6894C107.148 48.4244 106.664 48.2605 106.136 48.1975C105.608 48.1346 105.064 48.1781 104.503 48.3283C103.943 48.4784 103.45 48.7127 103.025 49.0311C102.611 49.3464 102.273 49.7307 102.011 50.1841C101.75 50.6375 101.583 51.1357 101.511 51.6787C101.451 52.2185 101.501 52.7864 101.661 53.3824C101.818 53.9664 102.058 54.4832 102.383 54.9327C102.717 55.3671 103.104 55.7168 103.546 55.9818C103.999 56.2436 104.49 56.4059 105.018 56.4689C105.545 56.5318 106.09 56.4883 106.65 56.3382Z" fill="white"/>
<path d="M56.2595 107.671L55.0235 103.059L62.0646 84.4235L69.395 82.4593L62.6758 101.008L59.0462 100.908L78.6061 95.6665L80.1104 101.281L56.2595 107.671ZM70.7741 108.918L69.4901 104.126L68.2004 98.4547L67.0602 94.1994L73.747 92.4077L77.6754 107.069L70.7741 108.918ZM91.7266 103.84C90.0102 104.3 88.2244 104.549 86.3692 104.586C84.5139 104.623 82.8492 104.418 81.3749 103.969L82.4862 97.9612C83.6901 98.354 84.9359 98.5695 86.2237 98.6077C87.5353 98.6395 88.7871 98.4957 89.979 98.1763C91.171 97.857 92.0758 97.3718 92.6934 96.7208C93.3047 96.046 93.4985 95.2915 93.275 94.4571C93.1408 93.9565 92.8796 93.5538 92.4913 93.249C92.0967 92.9204 91.5281 92.7534 90.7857 92.7479C90.0369 92.7186 89.0188 92.8764 87.7315 93.2213L80.9374 95.0418L78.2701 80.0812L94.2184 75.8079L95.6844 81.2789L82.2392 84.8816L85.0172 80.8029L86.8393 90.8926L82.3941 88.7493L87.9366 87.2642C90.4159 86.5999 92.5023 86.4241 94.1957 86.7368C95.8828 87.0257 97.2317 87.6736 98.2425 88.6803C99.2468 89.6631 99.947 90.8936 100.343 92.3716C100.739 93.8496 100.719 95.3496 100.284 96.8715C99.8661 98.3632 98.9671 99.7283 97.5871 100.967C96.207 102.205 94.2536 103.163 91.7266 103.84ZM107.886 98.9737L118.272 69.3629L123.421 67.9831L113.035 97.594L107.886 98.9737ZM107.099 86.8821C105.883 87.2078 104.713 87.2275 103.589 86.9411C102.464 86.6547 101.491 86.0724 100.668 85.1943C99.8385 84.2923 99.229 83.1142 98.8394 81.66C98.4497 80.2058 98.3917 78.8927 98.6654 77.7207C98.939 76.5487 99.491 75.5576 100.322 74.7475C101.146 73.9134 102.166 73.3335 103.381 73.0078C104.621 72.6756 105.794 72.6678 106.901 72.9845C108.025 73.2709 108.999 73.8532 109.822 74.7313C110.669 75.6031 111.287 76.7661 111.677 78.2202C112.06 79.6506 112.106 80.9669 111.815 82.1691C111.548 83.3649 110.999 84.3679 110.168 85.1781C109.362 85.9819 108.339 86.5499 107.099 86.8821ZM106.224 83.4754C106.82 83.3157 107.236 82.9106 107.47 82.2601C107.729 81.6032 107.688 80.6431 107.35 79.3796C107.011 78.1161 106.566 77.2645 106.014 76.8248C105.485 76.3787 104.923 76.2355 104.327 76.3952C103.731 76.5549 103.292 76.9664 103.01 77.6297C102.752 78.2866 102.792 79.2467 103.13 80.5102C103.469 81.7737 103.914 82.6253 104.466 83.065C105.043 83.4983 105.629 83.6351 106.224 83.4754ZM127.926 93.9491C126.686 94.2813 125.504 94.3042 124.38 94.0178C123.279 93.725 122.317 93.1395 121.494 92.2613C120.665 91.3593 120.056 90.1812 119.666 88.7271C119.276 87.2729 119.218 85.9598 119.492 84.7878C119.766 83.6158 120.306 82.6279 121.112 81.8241C121.936 80.9901 122.968 80.407 124.208 80.0748C125.448 79.7427 126.621 79.7349 127.728 80.0515C128.852 80.3379 129.826 80.9202 130.649 81.7984C131.495 82.6702 132.114 83.8331 132.503 85.2873C132.893 86.7415 132.942 88.0697 132.651 89.2719C132.377 90.4439 131.825 91.435 130.995 92.2452C130.188 93.049 129.165 93.617 127.926 93.9491ZM127.015 90.5521C127.611 90.3924 128.038 89.9841 128.297 89.3272C128.555 88.6703 128.515 87.7101 128.176 86.4467C127.838 85.1832 127.393 84.3316 126.84 83.8919C126.288 83.4522 125.714 83.3122 125.118 83.4719C124.546 83.6252 124.119 84.0335 123.837 84.6967C123.578 85.3536 123.618 86.3138 123.957 87.5773C124.296 88.8407 124.741 89.6923 125.293 90.132C125.869 90.5654 126.443 90.7054 127.015 90.5521ZM81.8251 141.693C79.8226 142.229 77.8888 142.403 76.0238 142.212C74.1587 142.022 72.438 141.512 70.8615 140.683C69.3025 139.823 67.9666 138.699 66.8537 137.311C65.7407 135.923 64.932 134.287 64.4273 132.404C63.9227 130.521 63.8053 128.7 64.075 126.941C64.3448 125.182 64.943 123.553 65.8696 122.053C66.8137 120.522 68.0458 119.208 69.5659 118.111C71.086 117.014 72.8473 116.197 74.8497 115.661C76.8761 115.118 78.8098 114.944 80.651 115.141C82.5161 115.331 84.2281 115.856 85.7871 116.716C87.3397 117.552 88.6725 118.664 89.7854 120.052C90.9221 121.434 91.7428 123.066 92.2475 124.949C92.7521 126.833 92.8608 128.669 92.5736 130.458C92.3038 132.216 91.7057 133.846 90.779 135.346C89.8524 136.846 88.629 138.145 87.1089 139.242C85.6127 140.333 83.8514 141.15 81.8251 141.693ZM80.2537 135.828C81.2073 135.573 82.0446 135.17 82.7657 134.619C83.5106 134.061 84.098 133.393 84.5279 132.613C84.9753 131.804 85.2477 130.913 85.3451 129.942C85.4663 128.964 85.3832 127.938 85.0958 126.866C84.8019 125.769 84.3612 124.84 83.7737 124.077C83.2036 123.285 82.5256 122.661 81.7397 122.208C80.9713 121.724 80.1252 121.427 79.2014 121.317C78.3014 121.2 77.3747 121.269 76.4211 121.525C75.4675 121.78 74.6183 122.187 73.8734 122.744C73.1523 123.295 72.568 123.975 72.1207 124.785C71.6908 125.565 71.4152 126.443 71.294 127.421C71.1902 128.369 71.2852 129.391 71.579 130.488C71.8665 131.56 72.2953 132.493 72.8653 133.286C73.4593 134.072 74.1405 134.707 74.9089 135.191C75.6948 135.645 76.5377 135.93 77.4377 136.046C78.3615 136.157 79.3001 136.084 80.2537 135.828ZM102.123 120.655L113.673 117.56L115.139 123.031L103.589 126.126L102.123 120.655ZM106.389 134.574L99.3092 136.471L92.6022 111.44L112.234 106.18L113.7 111.651L101.148 115.014L106.389 134.574ZM125.066 114.508L136.616 111.413L138.082 116.884L126.532 119.979L125.066 114.508ZM129.332 128.427L122.252 130.324L115.545 105.293L135.176 100.033L136.642 105.504L124.091 108.867L129.332 128.427Z" fill="white"/>
</svg>
