<svg width="12" height="15" viewBox="0 0 12 15" fill="none" xmlns="http://www.w3.org/2000/svg">
<path d="M6.66667 14.3335C6.47778 14.3335 6.31956 14.2695 6.192 14.1415C6.064 14.0139 6 13.8557 6 13.6668C6 13.4779 6.064 13.3197 6.192 13.1922C6.31956 13.0642 6.47778 13.0002 6.66667 13.0002H10.6667V12.3335H9.33333C8.96667 12.3335 8.65289 12.2031 8.392 11.9422C8.13067 11.6808 8 11.3668 8 11.0002V8.3335C8 7.96683 8.13067 7.65283 8.392 7.3915C8.65289 7.13061 8.96667 7.00016 9.33333 7.00016H10.6667V6.3335C10.6667 5.04461 10.2111 3.94461 9.3 3.0335C8.38889 2.12239 7.28889 1.66683 6 1.66683C4.71111 1.66683 3.61111 2.12239 2.7 3.0335C1.78889 3.94461 1.33333 5.04461 1.33333 6.3335V7.00016H2.66667C3.03333 7.00016 3.34711 7.13061 3.608 7.3915C3.86933 7.65283 4 7.96683 4 8.3335V11.0002C4 11.3668 3.86933 11.6808 3.608 11.9422C3.34711 12.2031 3.03333 12.3335 2.66667 12.3335H1.33333C0.966667 12.3335 0.652667 12.2031 0.391333 11.9422C0.130444 11.6808 0 11.3668 0 11.0002V6.3335C0 5.51127 0.158222 4.73616 0.474667 4.00816C0.791556 3.28061 1.22222 2.64461 1.76667 2.10016C2.31111 1.55572 2.94711 1.12505 3.67467 0.808163C4.40267 0.491718 5.17778 0.333496 6 0.333496C6.82222 0.333496 7.59733 0.491718 8.32533 0.808163C9.05289 1.12505 9.68889 1.55572 10.2333 2.10016C10.7778 2.64461 11.2084 3.28061 11.5253 4.00816C11.8418 4.73616 12 5.51127 12 6.3335V13.0002C12 13.3668 11.8696 13.6808 11.6087 13.9422C11.3473 14.2031 11.0333 14.3335 10.6667 14.3335H6.66667ZM1.33333 11.0002H2.66667V8.3335H1.33333V11.0002ZM9.33333 11.0002H10.6667V8.3335H9.33333V11.0002Z" fill="white" fill-opacity="0.8"/>
</svg>
