<svg width="64" height="64" viewBox="0 0 64 64" fill="none" xmlns="http://www.w3.org/2000/svg">
<rect width="64" height="64" rx="32" fill="#FF9B3E" fill-opacity="0.1"/>
<mask id="mask0_1_9363" style="mask-type:alpha" maskUnits="userSpaceOnUse" x="12" y="12" width="40" height="40">
<rect x="12" y="12" width="40" height="40" fill="#D9D9D9"/>
</mask>
<g mask="url(#mask0_1_9363)">
<path d="M32.002 49.4999C28.752 49.4999 25.8027 48.6954 23.1542 47.0864C20.5057 45.4774 18.4282 43.3214 16.9218 40.6184V45.5896H14.4219V36.423H23.5885V38.9229H18.8545C20.0596 41.3503 21.8406 43.3033 24.1974 44.782C26.5543 46.2606 29.1558 47 32.002 47C34.0425 47 35.9565 46.6228 37.7439 45.8685C39.5313 45.1143 41.096 44.0849 42.4378 42.7804C43.7797 41.4759 44.8572 39.9353 45.6702 38.1586C46.4832 36.3819 46.9218 34.4679 46.9859 32.4167H49.4859C49.4325 34.7842 48.9373 37.0042 48.0003 39.0769C47.0633 41.1495 45.8069 42.9604 44.2311 44.5095C42.6552 46.0587 40.8176 47.2777 38.7183 48.1666C36.6189 49.0555 34.3802 49.4999 32.002 49.4999ZM14.518 31.5833C14.5928 29.1623 15.1041 26.9129 16.0517 24.8349C16.9993 22.7569 18.2664 20.9487 19.853 19.4102C21.4395 17.8718 23.2744 16.6688 25.3577 15.8013C27.4411 14.9338 29.6558 14.5 32.002 14.5C35.2199 14.5 38.1692 15.3072 40.8498 16.9215C43.5303 18.5358 45.6078 20.7105 47.0821 23.4456V18.4103H49.582V27.5769H40.4154V25.077H45.1495C43.9764 22.6923 42.2087 20.75 39.8465 19.25C37.4844 17.75 34.8695 17 32.002 17C30.0041 17 28.1141 17.3717 26.3321 18.1153C24.5501 18.8589 22.9828 19.8776 21.6302 21.1714C20.2776 22.4652 19.1868 24.0005 18.3578 25.7772C17.5287 27.5539 17.0821 29.4893 17.018 31.5833H14.518ZM32.002 39.3236L29.7392 34.2628L24.6783 32L29.7392 29.6955L32.002 24.6763L34.3064 29.6955L39.3256 32L34.3064 34.2628L32.002 39.3236Z" fill="#FF9B3E"/>
</g>
</svg>
