<svg width="64" height="64" viewBox="0 0 64 64" fill="none" xmlns="http://www.w3.org/2000/svg">
<rect width="64" height="64" rx="32" fill="#FF9B3E" fill-opacity="0.1"/>
<mask id="mask0_1_9380" style="mask-type:alpha" maskUnits="userSpaceOnUse" x="12" y="12" width="40" height="40">
<rect x="12" y="12" width="40" height="40" fill="#D9D9D9"/>
</mask>
<g mask="url(#mask0_1_9380)">
<mask id="path-3-outside-1_1_9380" maskUnits="userSpaceOnUse" x="22" y="26" width="19" height="11" fill="black">
<rect fill="white" x="22" y="26" width="19" height="11"/>
<path d="M28.204 27C28.4477 27 28.6614 27.0469 28.8451 27.1406C29.0326 27.2343 29.1788 27.3768 29.2838 27.568C29.3888 27.7593 29.4413 28.0011 29.4413 28.2936V30.0089H28.9014V28.3554C28.9014 28.0667 28.8301 27.8493 28.6877 27.703C28.5489 27.5568 28.3521 27.4837 28.0971 27.4837C27.9059 27.4837 27.739 27.5212 27.5966 27.5962C27.4541 27.6712 27.3435 27.7818 27.2647 27.928C27.1898 28.0742 27.1523 28.2561 27.1523 28.4735V30.0089H26.6123V27.0281H27.1298V27.8324L27.0454 27.6187C27.1429 27.4237 27.2929 27.2718 27.4953 27.1631C27.6978 27.0544 27.934 27 28.204 27Z"/>
<path d="M31.7678 30.0427C31.4491 30.0427 31.1679 29.9771 30.9242 29.8458C30.6842 29.7146 30.4968 29.5346 30.3618 29.3059C30.2306 29.0772 30.1649 28.8147 30.1649 28.5185C30.1649 28.2223 30.2287 27.9599 30.3562 27.7311C30.4874 27.5024 30.6655 27.3243 30.8905 27.1968C31.1192 27.0656 31.376 27 31.661 27C31.9497 27 32.2046 27.0637 32.4259 27.1912C32.6471 27.3187 32.8196 27.4987 32.9433 27.7311C33.0708 27.9599 33.1345 28.2279 33.1345 28.5354C33.1345 28.5579 33.1326 28.5841 33.1289 28.6141C33.1289 28.6441 33.127 28.6723 33.1233 28.6985H30.5867V28.3104H32.8421L32.6227 28.4454C32.6265 28.2542 32.5871 28.0836 32.5046 27.9336C32.4221 27.7836 32.3078 27.6674 32.1615 27.5849C32.019 27.4987 31.8522 27.4556 31.661 27.4556C31.4735 27.4556 31.3066 27.4987 31.1604 27.5849C31.0142 27.6674 30.8998 27.7855 30.8173 27.9392C30.7349 28.0892 30.6936 28.2617 30.6936 28.4567V28.5467C30.6936 28.7454 30.7386 28.9235 30.8286 29.081C30.9223 29.2347 31.0517 29.3547 31.2167 29.4409C31.3816 29.5271 31.571 29.5703 31.7847 29.5703C31.9609 29.5703 32.1203 29.5403 32.2628 29.4803C32.409 29.4203 32.5365 29.3303 32.6452 29.2103L32.9433 29.559C32.8083 29.7165 32.6396 29.8365 32.4371 29.919C32.2384 30.0014 32.0153 30.0427 31.7678 30.0427Z"/>
<path d="M35.1384 30.0427C34.8835 30.0427 34.6585 29.9958 34.4635 29.9021C34.2723 29.8083 34.1223 29.6659 34.0136 29.4746C33.9086 29.2797 33.8561 29.036 33.8561 28.7435V27.0281H34.396V28.6816C34.396 28.9741 34.4654 29.1934 34.6041 29.3397C34.7466 29.4859 34.9453 29.559 35.2003 29.559C35.3878 29.559 35.5509 29.5215 35.6896 29.4465C35.8283 29.3678 35.9352 29.2553 36.0102 29.1091C36.0852 28.9591 36.1227 28.7791 36.1227 28.5691V27.0281H36.6626V30.0089H36.1508V29.2047L36.2352 29.4184C36.1377 29.6171 35.9914 29.7709 35.7965 29.8796C35.6015 29.9883 35.3822 30.0427 35.1384 30.0427Z"/>
<path d="M24.5073 36.0531C24.2073 36.0531 23.9205 36.0081 23.6468 35.9181C23.3731 35.8244 23.1575 35.7044 23 35.5581L23.2081 35.1195C23.3581 35.2507 23.5493 35.3594 23.7818 35.4457C24.0142 35.5319 24.2561 35.575 24.5073 35.575C24.736 35.575 24.9216 35.5488 25.0641 35.4963C25.2066 35.4438 25.3115 35.3725 25.379 35.2826C25.4465 35.1888 25.4803 35.0838 25.4803 34.9676C25.4803 34.8326 25.4353 34.7239 25.3453 34.6414C25.2591 34.5589 25.1447 34.4933 25.0022 34.4446C24.8635 34.3921 24.7098 34.3471 24.541 34.3096C24.3723 34.2721 24.2017 34.229 24.0292 34.1802C23.8605 34.1277 23.7049 34.0621 23.5624 33.9834C23.4237 33.9046 23.3112 33.7996 23.225 33.6684C23.1387 33.5334 23.0956 33.361 23.0956 33.151C23.0956 32.9485 23.1481 32.7629 23.2531 32.5942C23.3618 32.4217 23.5268 32.2849 23.748 32.1836C23.973 32.0786 24.2579 32.0262 24.6029 32.0262C24.8316 32.0262 25.0585 32.0561 25.2834 32.1161C25.5084 32.1761 25.7034 32.2624 25.8683 32.3749L25.6827 32.8248C25.514 32.7123 25.3359 32.6317 25.1484 32.5829C24.961 32.5305 24.7791 32.5042 24.6029 32.5042C24.3817 32.5042 24.1998 32.5323 24.0573 32.5886C23.9149 32.6448 23.8099 32.7198 23.7424 32.8135C23.6787 32.9073 23.6468 33.0123 23.6468 33.1285C23.6468 33.2672 23.6899 33.3778 23.7761 33.4603C23.8661 33.5428 23.9805 33.6084 24.1192 33.6572C24.2617 33.7059 24.4173 33.7509 24.586 33.7921C24.7547 33.8296 24.9235 33.8728 25.0922 33.9215C25.2647 33.9702 25.4203 34.034 25.559 34.1127C25.7015 34.1915 25.8158 34.2965 25.9021 34.4277C25.9883 34.5589 26.0314 34.7276 26.0314 34.9339C26.0314 35.1326 25.9771 35.3182 25.8683 35.4907C25.7596 35.6594 25.5909 35.7962 25.3622 35.9012C25.1372 36.0025 24.8522 36.0531 24.5073 36.0531Z"/>
<path d="M28.366 32.9991C28.6097 32.9991 28.8234 33.046 29.0072 33.1397C29.1946 33.2335 29.3409 33.376 29.4459 33.5672C29.5508 33.7584 29.6033 34.0002 29.6033 34.2927V36.0081H29.0634V34.3546C29.0634 34.0659 28.9922 33.8484 28.8497 33.7022C28.711 33.5559 28.5141 33.4828 28.2591 33.4828C28.0679 33.4828 27.9011 33.5203 27.7586 33.5953C27.6161 33.6703 27.5055 33.7809 27.4268 33.9271C27.3518 34.0734 27.3143 34.2552 27.3143 34.4727V36.0081H26.7744V31.8349H27.3143V33.8315L27.2074 33.6178C27.3049 33.4228 27.4549 33.271 27.6574 33.1622C27.8598 33.0535 28.096 32.9991 28.366 32.9991Z"/>
<path d="M30.6025 36.0081V33.0273H31.1425V36.0081H30.6025ZM30.8725 32.4536C30.7675 32.4536 30.6794 32.4198 30.6082 32.3524C30.5407 32.2849 30.5069 32.2024 30.5069 32.1049C30.5069 32.0037 30.5407 31.9193 30.6082 31.8518C30.6794 31.7843 30.7675 31.7506 30.8725 31.7506C30.9775 31.7506 31.0637 31.7843 31.1312 31.8518C31.2025 31.9155 31.2381 31.9962 31.2381 32.0936C31.2381 32.1949 31.2043 32.2811 31.1368 32.3524C31.0694 32.4198 30.9812 32.4536 30.8725 32.4536Z"/>
<path d="M33.5007 36.0418C33.182 36.0418 32.9008 35.9762 32.657 35.845C32.4171 35.7137 32.2296 35.5338 32.0946 35.3051C31.9634 35.0763 31.8978 34.8139 31.8978 34.5177C31.8978 34.2215 31.9615 33.959 32.089 33.7303C32.2202 33.5016 32.3983 33.3235 32.6233 33.196C32.852 33.0648 33.1089 32.9991 33.3938 32.9991C33.6825 32.9991 33.9375 33.0629 34.1587 33.1904C34.3799 33.3178 34.5524 33.4978 34.6761 33.7303C34.8036 33.959 34.8674 34.2271 34.8674 34.5345C34.8674 34.557 34.8655 34.5833 34.8617 34.6133C34.8617 34.6433 34.8599 34.6714 34.8561 34.6976H32.3196V34.3096H34.5749L34.3556 34.4446C34.3593 34.2533 34.3199 34.0827 34.2374 33.9328C34.155 33.7828 34.0406 33.6665 33.8944 33.5841C33.7519 33.4978 33.585 33.4547 33.3938 33.4547C33.2063 33.4547 33.0395 33.4978 32.8933 33.5841C32.747 33.6665 32.6327 33.7847 32.5502 33.9384C32.4677 34.0884 32.4265 34.2608 32.4265 34.4558V34.5458C32.4265 34.7445 32.4714 34.9226 32.5614 35.0801C32.6552 35.2338 32.7845 35.3538 32.9495 35.44C33.1145 35.5263 33.3038 35.5694 33.5175 35.5694C33.6938 35.5694 33.8531 35.5394 33.9956 35.4794C34.1418 35.4194 34.2693 35.3294 34.378 35.2094L34.6761 35.5581C34.5412 35.7156 34.3724 35.8356 34.17 35.9181C33.9712 36.0006 33.7481 36.0418 33.5007 36.0418Z"/>
<path d="M35.6171 36.0081V31.8349H36.157V36.0081H35.6171Z"/>
<path d="M38.4196 36.0418C38.1309 36.0418 37.8722 35.9781 37.6435 35.8506C37.4185 35.7231 37.2404 35.545 37.1092 35.3163C36.9779 35.0876 36.9123 34.8214 36.9123 34.5177C36.9123 34.214 36.9779 33.9496 37.1092 33.7247C37.2404 33.4959 37.4185 33.3178 37.6435 33.1904C37.8722 33.0629 38.1309 32.9991 38.4196 32.9991C38.6708 32.9991 38.8977 33.0554 39.1001 33.1679C39.3026 33.2803 39.4638 33.4491 39.5838 33.674C39.7075 33.899 39.7694 34.1802 39.7694 34.5177C39.7694 34.8551 39.7094 35.1363 39.5894 35.3613C39.4732 35.5863 39.3138 35.7569 39.1114 35.8731C38.9089 35.9856 38.6783 36.0418 38.4196 36.0418ZM38.4646 35.5694C38.6521 35.5694 38.8208 35.5263 38.9708 35.44C39.1245 35.3538 39.2445 35.2319 39.3307 35.0745C39.4207 34.9132 39.4657 34.7276 39.4657 34.5177C39.4657 34.304 39.4207 34.1202 39.3307 33.9665C39.2445 33.809 39.1245 33.6872 38.9708 33.6009C38.8208 33.5147 38.6521 33.4716 38.4646 33.4716C38.2734 33.4716 38.1028 33.5147 37.9528 33.6009C37.8028 33.6872 37.6828 33.809 37.5928 33.9665C37.5029 34.1202 37.4579 34.304 37.4579 34.5177C37.4579 34.7276 37.5029 34.9132 37.5928 35.0745C37.6828 35.2319 37.8028 35.3538 37.9528 35.44C38.1028 35.5263 38.2734 35.5694 38.4646 35.5694ZM39.4826 36.0081V35.2038L39.5163 34.512L39.4601 33.8203V31.8349H40V36.0081H39.4826Z"/>
</mask>
<path d="M28.204 27C28.4477 27 28.6614 27.0469 28.8451 27.1406C29.0326 27.2343 29.1788 27.3768 29.2838 27.568C29.3888 27.7593 29.4413 28.0011 29.4413 28.2936V30.0089H28.9014V28.3554C28.9014 28.0667 28.8301 27.8493 28.6877 27.703C28.5489 27.5568 28.3521 27.4837 28.0971 27.4837C27.9059 27.4837 27.739 27.5212 27.5966 27.5962C27.4541 27.6712 27.3435 27.7818 27.2647 27.928C27.1898 28.0742 27.1523 28.2561 27.1523 28.4735V30.0089H26.6123V27.0281H27.1298V27.8324L27.0454 27.6187C27.1429 27.4237 27.2929 27.2718 27.4953 27.1631C27.6978 27.0544 27.934 27 28.204 27Z" fill="#FF9B3E"/>
<path d="M31.7678 30.0427C31.4491 30.0427 31.1679 29.9771 30.9242 29.8458C30.6842 29.7146 30.4968 29.5346 30.3618 29.3059C30.2306 29.0772 30.1649 28.8147 30.1649 28.5185C30.1649 28.2223 30.2287 27.9599 30.3562 27.7311C30.4874 27.5024 30.6655 27.3243 30.8905 27.1968C31.1192 27.0656 31.376 27 31.661 27C31.9497 27 32.2046 27.0637 32.4259 27.1912C32.6471 27.3187 32.8196 27.4987 32.9433 27.7311C33.0708 27.9599 33.1345 28.2279 33.1345 28.5354C33.1345 28.5579 33.1326 28.5841 33.1289 28.6141C33.1289 28.6441 33.127 28.6723 33.1233 28.6985H30.5867V28.3104H32.8421L32.6227 28.4454C32.6265 28.2542 32.5871 28.0836 32.5046 27.9336C32.4221 27.7836 32.3078 27.6674 32.1615 27.5849C32.019 27.4987 31.8522 27.4556 31.661 27.4556C31.4735 27.4556 31.3066 27.4987 31.1604 27.5849C31.0142 27.6674 30.8998 27.7855 30.8173 27.9392C30.7349 28.0892 30.6936 28.2617 30.6936 28.4567V28.5467C30.6936 28.7454 30.7386 28.9235 30.8286 29.081C30.9223 29.2347 31.0517 29.3547 31.2167 29.4409C31.3816 29.5271 31.571 29.5703 31.7847 29.5703C31.9609 29.5703 32.1203 29.5403 32.2628 29.4803C32.409 29.4203 32.5365 29.3303 32.6452 29.2103L32.9433 29.559C32.8083 29.7165 32.6396 29.8365 32.4371 29.919C32.2384 30.0014 32.0153 30.0427 31.7678 30.0427Z" fill="#FF9B3E"/>
<path d="M35.1384 30.0427C34.8835 30.0427 34.6585 29.9958 34.4635 29.9021C34.2723 29.8083 34.1223 29.6659 34.0136 29.4746C33.9086 29.2797 33.8561 29.036 33.8561 28.7435V27.0281H34.396V28.6816C34.396 28.9741 34.4654 29.1934 34.6041 29.3397C34.7466 29.4859 34.9453 29.559 35.2003 29.559C35.3878 29.559 35.5509 29.5215 35.6896 29.4465C35.8283 29.3678 35.9352 29.2553 36.0102 29.1091C36.0852 28.9591 36.1227 28.7791 36.1227 28.5691V27.0281H36.6626V30.0089H36.1508V29.2047L36.2352 29.4184C36.1377 29.6171 35.9914 29.7709 35.7965 29.8796C35.6015 29.9883 35.3822 30.0427 35.1384 30.0427Z" fill="#FF9B3E"/>
<path d="M24.5073 36.0531C24.2073 36.0531 23.9205 36.0081 23.6468 35.9181C23.3731 35.8244 23.1575 35.7044 23 35.5581L23.2081 35.1195C23.3581 35.2507 23.5493 35.3594 23.7818 35.4457C24.0142 35.5319 24.2561 35.575 24.5073 35.575C24.736 35.575 24.9216 35.5488 25.0641 35.4963C25.2066 35.4438 25.3115 35.3725 25.379 35.2826C25.4465 35.1888 25.4803 35.0838 25.4803 34.9676C25.4803 34.8326 25.4353 34.7239 25.3453 34.6414C25.2591 34.5589 25.1447 34.4933 25.0022 34.4446C24.8635 34.3921 24.7098 34.3471 24.541 34.3096C24.3723 34.2721 24.2017 34.229 24.0292 34.1802C23.8605 34.1277 23.7049 34.0621 23.5624 33.9834C23.4237 33.9046 23.3112 33.7996 23.225 33.6684C23.1387 33.5334 23.0956 33.361 23.0956 33.151C23.0956 32.9485 23.1481 32.7629 23.2531 32.5942C23.3618 32.4217 23.5268 32.2849 23.748 32.1836C23.973 32.0786 24.2579 32.0262 24.6029 32.0262C24.8316 32.0262 25.0585 32.0561 25.2834 32.1161C25.5084 32.1761 25.7034 32.2624 25.8683 32.3749L25.6827 32.8248C25.514 32.7123 25.3359 32.6317 25.1484 32.5829C24.961 32.5305 24.7791 32.5042 24.6029 32.5042C24.3817 32.5042 24.1998 32.5323 24.0573 32.5886C23.9149 32.6448 23.8099 32.7198 23.7424 32.8135C23.6787 32.9073 23.6468 33.0123 23.6468 33.1285C23.6468 33.2672 23.6899 33.3778 23.7761 33.4603C23.8661 33.5428 23.9805 33.6084 24.1192 33.6572C24.2617 33.7059 24.4173 33.7509 24.586 33.7921C24.7547 33.8296 24.9235 33.8728 25.0922 33.9215C25.2647 33.9702 25.4203 34.034 25.559 34.1127C25.7015 34.1915 25.8158 34.2965 25.9021 34.4277C25.9883 34.5589 26.0314 34.7276 26.0314 34.9339C26.0314 35.1326 25.9771 35.3182 25.8683 35.4907C25.7596 35.6594 25.5909 35.7962 25.3622 35.9012C25.1372 36.0025 24.8522 36.0531 24.5073 36.0531Z" fill="#FF9B3E"/>
<path d="M28.366 32.9991C28.6097 32.9991 28.8234 33.046 29.0072 33.1397C29.1946 33.2335 29.3409 33.376 29.4459 33.5672C29.5508 33.7584 29.6033 34.0002 29.6033 34.2927V36.0081H29.0634V34.3546C29.0634 34.0659 28.9922 33.8484 28.8497 33.7022C28.711 33.5559 28.5141 33.4828 28.2591 33.4828C28.0679 33.4828 27.9011 33.5203 27.7586 33.5953C27.6161 33.6703 27.5055 33.7809 27.4268 33.9271C27.3518 34.0734 27.3143 34.2552 27.3143 34.4727V36.0081H26.7744V31.8349H27.3143V33.8315L27.2074 33.6178C27.3049 33.4228 27.4549 33.271 27.6574 33.1622C27.8598 33.0535 28.096 32.9991 28.366 32.9991Z" fill="#FF9B3E"/>
<path d="M30.6025 36.0081V33.0273H31.1425V36.0081H30.6025ZM30.8725 32.4536C30.7675 32.4536 30.6794 32.4198 30.6082 32.3524C30.5407 32.2849 30.5069 32.2024 30.5069 32.1049C30.5069 32.0037 30.5407 31.9193 30.6082 31.8518C30.6794 31.7843 30.7675 31.7506 30.8725 31.7506C30.9775 31.7506 31.0637 31.7843 31.1312 31.8518C31.2025 31.9155 31.2381 31.9962 31.2381 32.0936C31.2381 32.1949 31.2043 32.2811 31.1368 32.3524C31.0694 32.4198 30.9812 32.4536 30.8725 32.4536Z" fill="#FF9B3E"/>
<path d="M33.5007 36.0418C33.182 36.0418 32.9008 35.9762 32.657 35.845C32.4171 35.7137 32.2296 35.5338 32.0946 35.3051C31.9634 35.0763 31.8978 34.8139 31.8978 34.5177C31.8978 34.2215 31.9615 33.959 32.089 33.7303C32.2202 33.5016 32.3983 33.3235 32.6233 33.196C32.852 33.0648 33.1089 32.9991 33.3938 32.9991C33.6825 32.9991 33.9375 33.0629 34.1587 33.1904C34.3799 33.3178 34.5524 33.4978 34.6761 33.7303C34.8036 33.959 34.8674 34.2271 34.8674 34.5345C34.8674 34.557 34.8655 34.5833 34.8617 34.6133C34.8617 34.6433 34.8599 34.6714 34.8561 34.6976H32.3196V34.3096H34.5749L34.3556 34.4446C34.3593 34.2533 34.3199 34.0827 34.2374 33.9328C34.155 33.7828 34.0406 33.6665 33.8944 33.5841C33.7519 33.4978 33.585 33.4547 33.3938 33.4547C33.2063 33.4547 33.0395 33.4978 32.8933 33.5841C32.747 33.6665 32.6327 33.7847 32.5502 33.9384C32.4677 34.0884 32.4265 34.2608 32.4265 34.4558V34.5458C32.4265 34.7445 32.4714 34.9226 32.5614 35.0801C32.6552 35.2338 32.7845 35.3538 32.9495 35.44C33.1145 35.5263 33.3038 35.5694 33.5175 35.5694C33.6938 35.5694 33.8531 35.5394 33.9956 35.4794C34.1418 35.4194 34.2693 35.3294 34.378 35.2094L34.6761 35.5581C34.5412 35.7156 34.3724 35.8356 34.17 35.9181C33.9712 36.0006 33.7481 36.0418 33.5007 36.0418Z" fill="#FF9B3E"/>
<path d="M35.6171 36.0081V31.8349H36.157V36.0081H35.6171Z" fill="#FF9B3E"/>
<path d="M38.4196 36.0418C38.1309 36.0418 37.8722 35.9781 37.6435 35.8506C37.4185 35.7231 37.2404 35.545 37.1092 35.3163C36.9779 35.0876 36.9123 34.8214 36.9123 34.5177C36.9123 34.214 36.9779 33.9496 37.1092 33.7247C37.2404 33.4959 37.4185 33.3178 37.6435 33.1904C37.8722 33.0629 38.1309 32.9991 38.4196 32.9991C38.6708 32.9991 38.8977 33.0554 39.1001 33.1679C39.3026 33.2803 39.4638 33.4491 39.5838 33.674C39.7075 33.899 39.7694 34.1802 39.7694 34.5177C39.7694 34.8551 39.7094 35.1363 39.5894 35.3613C39.4732 35.5863 39.3138 35.7569 39.1114 35.8731C38.9089 35.9856 38.6783 36.0418 38.4196 36.0418ZM38.4646 35.5694C38.6521 35.5694 38.8208 35.5263 38.9708 35.44C39.1245 35.3538 39.2445 35.2319 39.3307 35.0745C39.4207 34.9132 39.4657 34.7276 39.4657 34.5177C39.4657 34.304 39.4207 34.1202 39.3307 33.9665C39.2445 33.809 39.1245 33.6872 38.9708 33.6009C38.8208 33.5147 38.6521 33.4716 38.4646 33.4716C38.2734 33.4716 38.1028 33.5147 37.9528 33.6009C37.8028 33.6872 37.6828 33.809 37.5928 33.9665C37.5029 34.1202 37.4579 34.304 37.4579 34.5177C37.4579 34.7276 37.5029 34.9132 37.5928 35.0745C37.6828 35.2319 37.8028 35.3538 37.9528 35.44C38.1028 35.5263 38.2734 35.5694 38.4646 35.5694ZM39.4826 36.0081V35.2038L39.5163 34.512L39.4601 33.8203V31.8349H40V36.0081H39.4826Z" fill="#FF9B3E"/>
<path d="M28.204 27C28.4477 27 28.6614 27.0469 28.8451 27.1406C29.0326 27.2343 29.1788 27.3768 29.2838 27.568C29.3888 27.7593 29.4413 28.0011 29.4413 28.2936V30.0089H28.9014V28.3554C28.9014 28.0667 28.8301 27.8493 28.6877 27.703C28.5489 27.5568 28.3521 27.4837 28.0971 27.4837C27.9059 27.4837 27.739 27.5212 27.5966 27.5962C27.4541 27.6712 27.3435 27.7818 27.2647 27.928C27.1898 28.0742 27.1523 28.2561 27.1523 28.4735V30.0089H26.6123V27.0281H27.1298V27.8324L27.0454 27.6187C27.1429 27.4237 27.2929 27.2718 27.4953 27.1631C27.6978 27.0544 27.934 27 28.204 27Z" stroke="#FF9B3E" stroke-width="0.749892" mask="url(#path-3-outside-1_1_9380)"/>
<path d="M31.7678 30.0427C31.4491 30.0427 31.1679 29.9771 30.9242 29.8458C30.6842 29.7146 30.4968 29.5346 30.3618 29.3059C30.2306 29.0772 30.1649 28.8147 30.1649 28.5185C30.1649 28.2223 30.2287 27.9599 30.3562 27.7311C30.4874 27.5024 30.6655 27.3243 30.8905 27.1968C31.1192 27.0656 31.376 27 31.661 27C31.9497 27 32.2046 27.0637 32.4259 27.1912C32.6471 27.3187 32.8196 27.4987 32.9433 27.7311C33.0708 27.9599 33.1345 28.2279 33.1345 28.5354C33.1345 28.5579 33.1326 28.5841 33.1289 28.6141C33.1289 28.6441 33.127 28.6723 33.1233 28.6985H30.5867V28.3104H32.8421L32.6227 28.4454C32.6265 28.2542 32.5871 28.0836 32.5046 27.9336C32.4221 27.7836 32.3078 27.6674 32.1615 27.5849C32.019 27.4987 31.8522 27.4556 31.661 27.4556C31.4735 27.4556 31.3066 27.4987 31.1604 27.5849C31.0142 27.6674 30.8998 27.7855 30.8173 27.9392C30.7349 28.0892 30.6936 28.2617 30.6936 28.4567V28.5467C30.6936 28.7454 30.7386 28.9235 30.8286 29.081C30.9223 29.2347 31.0517 29.3547 31.2167 29.4409C31.3816 29.5271 31.571 29.5703 31.7847 29.5703C31.9609 29.5703 32.1203 29.5403 32.2628 29.4803C32.409 29.4203 32.5365 29.3303 32.6452 29.2103L32.9433 29.559C32.8083 29.7165 32.6396 29.8365 32.4371 29.919C32.2384 30.0014 32.0153 30.0427 31.7678 30.0427Z" stroke="#FF9B3E" stroke-width="0.749892" mask="url(#path-3-outside-1_1_9380)"/>
<path d="M35.1384 30.0427C34.8835 30.0427 34.6585 29.9958 34.4635 29.9021C34.2723 29.8083 34.1223 29.6659 34.0136 29.4746C33.9086 29.2797 33.8561 29.036 33.8561 28.7435V27.0281H34.396V28.6816C34.396 28.9741 34.4654 29.1934 34.6041 29.3397C34.7466 29.4859 34.9453 29.559 35.2003 29.559C35.3878 29.559 35.5509 29.5215 35.6896 29.4465C35.8283 29.3678 35.9352 29.2553 36.0102 29.1091C36.0852 28.9591 36.1227 28.7791 36.1227 28.5691V27.0281H36.6626V30.0089H36.1508V29.2047L36.2352 29.4184C36.1377 29.6171 35.9914 29.7709 35.7965 29.8796C35.6015 29.9883 35.3822 30.0427 35.1384 30.0427Z" stroke="#FF9B3E" stroke-width="0.749892" mask="url(#path-3-outside-1_1_9380)"/>
<path d="M24.5073 36.0531C24.2073 36.0531 23.9205 36.0081 23.6468 35.9181C23.3731 35.8244 23.1575 35.7044 23 35.5581L23.2081 35.1195C23.3581 35.2507 23.5493 35.3594 23.7818 35.4457C24.0142 35.5319 24.2561 35.575 24.5073 35.575C24.736 35.575 24.9216 35.5488 25.0641 35.4963C25.2066 35.4438 25.3115 35.3725 25.379 35.2826C25.4465 35.1888 25.4803 35.0838 25.4803 34.9676C25.4803 34.8326 25.4353 34.7239 25.3453 34.6414C25.2591 34.5589 25.1447 34.4933 25.0022 34.4446C24.8635 34.3921 24.7098 34.3471 24.541 34.3096C24.3723 34.2721 24.2017 34.229 24.0292 34.1802C23.8605 34.1277 23.7049 34.0621 23.5624 33.9834C23.4237 33.9046 23.3112 33.7996 23.225 33.6684C23.1387 33.5334 23.0956 33.361 23.0956 33.151C23.0956 32.9485 23.1481 32.7629 23.2531 32.5942C23.3618 32.4217 23.5268 32.2849 23.748 32.1836C23.973 32.0786 24.2579 32.0262 24.6029 32.0262C24.8316 32.0262 25.0585 32.0561 25.2834 32.1161C25.5084 32.1761 25.7034 32.2624 25.8683 32.3749L25.6827 32.8248C25.514 32.7123 25.3359 32.6317 25.1484 32.5829C24.961 32.5305 24.7791 32.5042 24.6029 32.5042C24.3817 32.5042 24.1998 32.5323 24.0573 32.5886C23.9149 32.6448 23.8099 32.7198 23.7424 32.8135C23.6787 32.9073 23.6468 33.0123 23.6468 33.1285C23.6468 33.2672 23.6899 33.3778 23.7761 33.4603C23.8661 33.5428 23.9805 33.6084 24.1192 33.6572C24.2617 33.7059 24.4173 33.7509 24.586 33.7921C24.7547 33.8296 24.9235 33.8728 25.0922 33.9215C25.2647 33.9702 25.4203 34.034 25.559 34.1127C25.7015 34.1915 25.8158 34.2965 25.9021 34.4277C25.9883 34.5589 26.0314 34.7276 26.0314 34.9339C26.0314 35.1326 25.9771 35.3182 25.8683 35.4907C25.7596 35.6594 25.5909 35.7962 25.3622 35.9012C25.1372 36.0025 24.8522 36.0531 24.5073 36.0531Z" stroke="#FF9B3E" stroke-width="0.749892" mask="url(#path-3-outside-1_1_9380)"/>
<path d="M28.366 32.9991C28.6097 32.9991 28.8234 33.046 29.0072 33.1397C29.1946 33.2335 29.3409 33.376 29.4459 33.5672C29.5508 33.7584 29.6033 34.0002 29.6033 34.2927V36.0081H29.0634V34.3546C29.0634 34.0659 28.9922 33.8484 28.8497 33.7022C28.711 33.5559 28.5141 33.4828 28.2591 33.4828C28.0679 33.4828 27.9011 33.5203 27.7586 33.5953C27.6161 33.6703 27.5055 33.7809 27.4268 33.9271C27.3518 34.0734 27.3143 34.2552 27.3143 34.4727V36.0081H26.7744V31.8349H27.3143V33.8315L27.2074 33.6178C27.3049 33.4228 27.4549 33.271 27.6574 33.1622C27.8598 33.0535 28.096 32.9991 28.366 32.9991Z" stroke="#FF9B3E" stroke-width="0.749892" mask="url(#path-3-outside-1_1_9380)"/>
<path d="M30.6025 36.0081V33.0273H31.1425V36.0081H30.6025ZM30.8725 32.4536C30.7675 32.4536 30.6794 32.4198 30.6082 32.3524C30.5407 32.2849 30.5069 32.2024 30.5069 32.1049C30.5069 32.0037 30.5407 31.9193 30.6082 31.8518C30.6794 31.7843 30.7675 31.7506 30.8725 31.7506C30.9775 31.7506 31.0637 31.7843 31.1312 31.8518C31.2025 31.9155 31.2381 31.9962 31.2381 32.0936C31.2381 32.1949 31.2043 32.2811 31.1368 32.3524C31.0694 32.4198 30.9812 32.4536 30.8725 32.4536Z" stroke="#FF9B3E" stroke-width="0.749892" mask="url(#path-3-outside-1_1_9380)"/>
<path d="M33.5007 36.0418C33.182 36.0418 32.9008 35.9762 32.657 35.845C32.4171 35.7137 32.2296 35.5338 32.0946 35.3051C31.9634 35.0763 31.8978 34.8139 31.8978 34.5177C31.8978 34.2215 31.9615 33.959 32.089 33.7303C32.2202 33.5016 32.3983 33.3235 32.6233 33.196C32.852 33.0648 33.1089 32.9991 33.3938 32.9991C33.6825 32.9991 33.9375 33.0629 34.1587 33.1904C34.3799 33.3178 34.5524 33.4978 34.6761 33.7303C34.8036 33.959 34.8674 34.2271 34.8674 34.5345C34.8674 34.557 34.8655 34.5833 34.8617 34.6133C34.8617 34.6433 34.8599 34.6714 34.8561 34.6976H32.3196V34.3096H34.5749L34.3556 34.4446C34.3593 34.2533 34.3199 34.0827 34.2374 33.9328C34.155 33.7828 34.0406 33.6665 33.8944 33.5841C33.7519 33.4978 33.585 33.4547 33.3938 33.4547C33.2063 33.4547 33.0395 33.4978 32.8933 33.5841C32.747 33.6665 32.6327 33.7847 32.5502 33.9384C32.4677 34.0884 32.4265 34.2608 32.4265 34.4558V34.5458C32.4265 34.7445 32.4714 34.9226 32.5614 35.0801C32.6552 35.2338 32.7845 35.3538 32.9495 35.44C33.1145 35.5263 33.3038 35.5694 33.5175 35.5694C33.6938 35.5694 33.8531 35.5394 33.9956 35.4794C34.1418 35.4194 34.2693 35.3294 34.378 35.2094L34.6761 35.5581C34.5412 35.7156 34.3724 35.8356 34.17 35.9181C33.9712 36.0006 33.7481 36.0418 33.5007 36.0418Z" stroke="#FF9B3E" stroke-width="0.749892" mask="url(#path-3-outside-1_1_9380)"/>
<path d="M35.6171 36.0081V31.8349H36.157V36.0081H35.6171Z" stroke="#FF9B3E" stroke-width="0.749892" mask="url(#path-3-outside-1_1_9380)"/>
<path d="M38.4196 36.0418C38.1309 36.0418 37.8722 35.9781 37.6435 35.8506C37.4185 35.7231 37.2404 35.545 37.1092 35.3163C36.9779 35.0876 36.9123 34.8214 36.9123 34.5177C36.9123 34.214 36.9779 33.9496 37.1092 33.7247C37.2404 33.4959 37.4185 33.3178 37.6435 33.1904C37.8722 33.0629 38.1309 32.9991 38.4196 32.9991C38.6708 32.9991 38.8977 33.0554 39.1001 33.1679C39.3026 33.2803 39.4638 33.4491 39.5838 33.674C39.7075 33.899 39.7694 34.1802 39.7694 34.5177C39.7694 34.8551 39.7094 35.1363 39.5894 35.3613C39.4732 35.5863 39.3138 35.7569 39.1114 35.8731C38.9089 35.9856 38.6783 36.0418 38.4196 36.0418ZM38.4646 35.5694C38.6521 35.5694 38.8208 35.5263 38.9708 35.44C39.1245 35.3538 39.2445 35.2319 39.3307 35.0745C39.4207 34.9132 39.4657 34.7276 39.4657 34.5177C39.4657 34.304 39.4207 34.1202 39.3307 33.9665C39.2445 33.809 39.1245 33.6872 38.9708 33.6009C38.8208 33.5147 38.6521 33.4716 38.4646 33.4716C38.2734 33.4716 38.1028 33.5147 37.9528 33.6009C37.8028 33.6872 37.6828 33.809 37.5928 33.9665C37.5029 34.1202 37.4579 34.304 37.4579 34.5177C37.4579 34.7276 37.5029 34.9132 37.5928 35.0745C37.6828 35.2319 37.8028 35.3538 37.9528 35.44C38.1028 35.5263 38.2734 35.5694 38.4646 35.5694ZM39.4826 36.0081V35.2038L39.5163 34.512L39.4601 33.8203V31.8349H40V36.0081H39.4826Z" stroke="#FF9B3E" stroke-width="0.749892" mask="url(#path-3-outside-1_1_9380)"/>
<path d="M31.75 49.7275C27.7848 48.6463 24.5019 46.3124 21.9011 42.7256C19.3004 39.1389 18 35.129 18 30.6961V20.1474L31.75 15L45.5 20.1474V30.6961C45.5 35.129 44.1996 39.1389 41.5989 42.7256C38.9981 46.3124 35.7152 48.6463 31.75 49.7275ZM31.75 46.8295C34.9278 45.8212 37.5556 43.8045 39.6334 40.7795C41.7111 37.7545 42.75 34.3934 42.75 30.6961V22.0336L31.75 17.9262L20.75 22.0336V30.6961C20.75 34.3934 21.7889 37.7545 23.8666 40.7795C25.9444 43.8045 28.5722 45.8212 31.75 46.8295Z" fill="#FF9B3E"/>
</g>
</svg>
