<svg width="64" height="64" viewBox="0 0 64 64" fill="none" xmlns="http://www.w3.org/2000/svg">
<rect width="64" height="64" rx="32" fill="#FF9B3E" fill-opacity="0.1"/>
<mask id="mask0_1_9372" style="mask-type:alpha" maskUnits="userSpaceOnUse" x="12" y="12" width="40" height="40">
<rect x="12" y="12" width="40" height="40" fill="#D9D9D9"/>
</mask>
<g mask="url(#mask0_1_9372)">
<path d="M21.7384 44.596C20.4375 44.596 19.333 44.1411 18.4249 43.2312C17.5167 42.3213 17.0627 41.2164 17.0627 39.9166H14.2422V22.5128C14.2422 21.6709 14.5339 20.9583 15.1172 20.375C15.7005 19.7917 16.4131 19.5 17.255 19.5H39.9473V25.8462H44.3703L49.7549 33.0577V39.9166H46.7421C46.7421 41.2164 46.2868 42.3213 45.3762 43.2312C44.4655 44.1411 43.3598 44.596 42.0589 44.596C40.758 44.596 39.6535 44.1411 38.7454 43.2312C37.8373 42.3213 37.3832 41.2164 37.3832 39.9166H26.4216C26.4216 41.22 25.9663 42.3258 25.0556 43.2339C24.145 44.142 23.0393 44.596 21.7384 44.596ZM21.7421 42.0961C22.3533 42.0961 22.8693 41.8857 23.2902 41.4647C23.7112 41.0438 23.9216 40.5277 23.9216 39.9166C23.9216 39.3055 23.7112 38.7894 23.2902 38.3685C22.8693 37.9476 22.3533 37.7371 21.7421 37.7371C21.131 37.7371 20.615 37.9476 20.194 38.3685C19.7731 38.7894 19.5626 39.3055 19.5626 39.9166C19.5626 40.5277 19.7731 41.0438 20.194 41.4647C20.615 41.8857 21.131 42.0961 21.7421 42.0961ZM16.7421 37.4167H17.9473C18.3019 36.7991 18.8142 36.2815 19.4841 35.8638C20.154 35.446 20.9067 35.2371 21.7421 35.2371C22.5563 35.2371 23.3036 35.4433 23.9841 35.8557C24.6647 36.2681 25.1823 36.7884 25.537 37.4167H37.4473V22H17.255C17.1268 22 17.0093 22.0534 16.9024 22.1602C16.7956 22.2671 16.7421 22.3846 16.7421 22.5128V37.4167ZM42.0627 42.0961C42.6738 42.0961 43.1898 41.8857 43.6108 41.4647C44.0317 41.0438 44.2422 40.5277 44.2422 39.9166C44.2422 39.3055 44.0317 38.7894 43.6108 38.3685C43.1898 37.9476 42.6738 37.7371 42.0627 37.7371C41.4515 37.7371 40.9355 37.9476 40.5146 38.3685C40.0936 38.7894 39.8831 39.3055 39.8831 39.9166C39.8831 40.5277 40.0936 41.0438 40.5146 41.4647C40.9355 41.8857 41.4515 42.0961 42.0627 42.0961ZM39.9473 34.0833H47.4152L43.0883 28.3461H39.9473V34.0833Z" fill="#FF9B3E"/>
</g>
</svg>
