<svg width="64" height="64" viewBox="0 0 64 64" fill="none" xmlns="http://www.w3.org/2000/svg">
<rect width="64" height="64" rx="32" fill="#FF9B3E" fill-opacity="0.1"/>
<mask id="mask0_1_9347" style="mask-type:alpha" maskUnits="userSpaceOnUse" x="12" y="12" width="40" height="40">
<rect x="12" y="12" width="40" height="40" fill="#D9D9D9"/>
</mask>
<g mask="url(#mask0_1_9347)">
<path d="M42.8317 26.327L41.0689 22.4167L37.1587 20.654L41.0689 18.8912L42.8317 14.981L44.5945 18.8912L48.5047 20.654L44.5945 22.4167L42.8317 26.327ZM42.8317 49.0192L41.0689 45.109L37.1587 43.3462L41.0689 41.5834L42.8317 37.6732L44.5945 41.5834L48.5047 43.3462L44.5945 45.109L42.8317 49.0192ZM26.8061 43.314L23.2805 35.5257L15.4922 32.0001L23.2805 28.4745L26.8061 20.6861L30.3317 28.4745L38.1201 32.0001L30.3317 35.5257L26.8061 43.314ZM26.8061 37.2501L28.4728 33.6667L32.0561 32.0001L28.4728 30.3334L26.8061 26.7501L25.1394 30.3334L21.5561 32.0001L25.1394 33.6667L26.8061 37.2501Z" fill="#FF9B3E"/>
</g>
</svg>
