<svg width="64" height="64" viewBox="0 0 64 64" fill="none" xmlns="http://www.w3.org/2000/svg">
<rect width="64" height="64" rx="32" fill="#FF9B3E" fill-opacity="0.1"/>
<mask id="mask0_1_9355" style="mask-type:alpha" maskUnits="userSpaceOnUse" x="12" y="12" width="40" height="40">
<rect x="12" y="12" width="40" height="40" fill="#D9D9D9"/>
</mask>
<g mask="url(#mask0_1_9355)">
<path d="M41.128 46.3395L30.628 35.7882C30.0404 36.0425 29.4431 36.2385 28.8363 36.3764C28.2295 36.5142 27.5852 36.5831 26.9036 36.5831C24.2434 36.5831 21.9811 35.6509 20.1168 33.7866C18.2525 31.9223 17.3203 29.66 17.3203 26.9998C17.3203 26.1387 17.4298 25.3155 17.6488 24.5303C17.8678 23.745 18.1793 22.9977 18.5831 22.2883L24.5703 28.2434L28.1472 24.6665L22.2242 18.7113C22.9336 18.3075 23.6755 17.9907 24.4501 17.761C25.2247 17.5314 26.0425 17.4165 26.9036 17.4165C29.5639 17.4165 31.8261 18.3487 33.6904 20.213C35.5547 22.0773 36.4869 24.3395 36.4869 26.9998C36.4869 27.7028 36.4207 28.3577 36.2882 28.9645C36.1557 29.5714 35.957 30.1579 35.692 30.7242L46.2434 41.2242C46.5339 41.5148 46.6792 41.8695 46.6792 42.2883C46.6792 42.7071 46.5339 43.0618 46.2434 43.3524L43.2241 46.3716C42.9336 46.6622 42.5842 46.8021 42.1761 46.7915C41.768 46.7808 41.4186 46.6301 41.128 46.3395ZM42.1921 43.8396L43.7178 42.3139L32.6184 31.2145C33.0863 30.6376 33.4314 29.9811 33.6536 29.245C33.8759 28.5089 33.987 27.7605 33.987 26.9998C33.987 25.1515 33.3267 23.5158 32.0062 22.0927C30.6857 20.6696 29.0147 19.972 26.9933 19.9998L30.6215 23.628C30.9121 23.9186 31.0628 24.2594 31.0734 24.6504C31.0841 25.0414 30.9442 25.3823 30.6536 25.6729L25.6087 30.7177C25.3181 31.0083 24.972 31.1536 24.5703 31.1536C24.1686 31.1536 23.8224 31.0083 23.5318 30.7177L19.9036 27.0895C19.9078 29.2284 20.6269 30.9288 22.0606 32.1905C23.4944 33.4523 25.1087 34.0832 26.9036 34.0832C27.6365 34.0832 28.3668 33.9747 29.0943 33.7578C29.8219 33.5409 30.488 33.2017 31.0927 32.7402L42.1921 43.8396Z" fill="#FF9B3E"/>
</g>
</svg>
