<svg width="64" height="64" viewBox="0 0 64 64" fill="none" xmlns="http://www.w3.org/2000/svg">
<rect width="64" height="64" rx="32" fill="#FF9B3E" fill-opacity="0.1"/>
<mask id="mask0_1_9389" style="mask-type:alpha" maskUnits="userSpaceOnUse" x="12" y="12" width="40" height="40">
<rect x="12" y="12" width="40" height="40" fill="#D9D9D9"/>
</mask>
<g mask="url(#mask0_1_9389)">
<path d="M30.75 26.5834V21.5834H25.75V19.0835H30.75V14.0835H33.2499V19.0835H38.2499V21.5834H33.2499V26.5834H30.75ZM23.923 47.9295C23.1132 47.9295 22.4247 47.6459 21.8574 47.0786C21.2901 46.5113 21.0064 45.8228 21.0064 45.0129C21.0064 44.2031 21.2901 43.5146 21.8574 42.9472C22.4247 42.3799 23.1132 42.0963 23.923 42.0963C24.7329 42.0963 25.4214 42.3799 25.9887 42.9472C26.5561 43.5146 26.8397 44.2031 26.8397 45.0129C26.8397 45.8228 26.5561 46.5113 25.9887 47.0786C25.4214 47.6459 24.7329 47.9295 23.923 47.9295ZM40.0769 47.9295C39.267 47.9295 38.5785 47.6459 38.0112 47.0786C37.4439 46.5113 37.1602 45.8228 37.1602 45.0129C37.1602 44.2031 37.4439 43.5146 38.0112 42.9472C38.5785 42.3799 39.267 42.0963 40.0769 42.0963C40.8867 42.0963 41.5752 42.3799 42.1425 42.9472C42.7098 43.5146 42.9935 44.2031 42.9935 45.0129C42.9935 45.8228 42.7098 46.5113 42.1425 47.0786C41.5752 47.6459 40.8867 47.9295 40.0769 47.9295ZM23.923 39.5962C22.812 39.5962 21.9685 39.1171 21.3926 38.1587C20.8168 37.2004 20.8056 36.2437 21.359 35.2886L23.7372 31.0129L17.6731 18.2501H14.5V15.7502H19.2692L26.2243 30.4296H37.9166L44.1987 19.0835L46.3941 20.2662L40.2243 31.4039C39.9508 31.8954 39.5934 32.2725 39.1522 32.5353C38.7109 32.7981 38.2136 32.9295 37.6602 32.9295H25.5L23.5705 36.4552C23.485 36.5834 23.4823 36.7223 23.5625 36.8719C23.6426 37.0215 23.7628 37.0963 23.923 37.0963H42.9935V39.5962H23.923Z" fill="#FF9B3E"/>
</g>
</svg>
