<svg width="12" height="8" viewBox="0 0 12 8" fill="none" xmlns="http://www.w3.org/2000/svg">
<path d="M0.666667 8C0.477778 8 0.319556 7.936 0.192 7.808C0.0640001 7.68044 0 7.52222 0 7.33333C0 7.14444 0.0640001 6.98622 0.192 6.85867C0.319556 6.73067 0.477778 6.66667 0.666667 6.66667H11.3333C11.5222 6.66667 11.6804 6.73067 11.808 6.85867C11.936 6.98622 12 7.14444 12 7.33333C12 7.52222 11.936 7.68044 11.808 7.808C11.6804 7.936 11.5222 8 11.3333 8H0.666667ZM0.666667 4.66667C0.477778 4.66667 0.319556 4.60267 0.192 4.47467C0.0640001 4.34711 0 4.18889 0 4C0 3.81111 0.0640001 3.65267 0.192 3.52467C0.319556 3.39711 0.477778 3.33333 0.666667 3.33333H11.3333C11.5222 3.33333 11.6804 3.39711 11.808 3.52467C11.936 3.65267 12 3.81111 12 4C12 4.18889 11.936 4.34711 11.808 4.47467C11.6804 4.60267 11.5222 4.66667 11.3333 4.66667H0.666667ZM0.666667 1.33333C0.477778 1.33333 0.319556 1.26956 0.192 1.142C0.0640001 1.014 0 0.855556 0 0.666667C0 0.477778 0.0640001 0.319333 0.192 0.191333C0.319556 0.0637779 0.477778 0 0.666667 0H11.3333C11.5222 0 11.6804 0.0637779 11.808 0.191333C11.936 0.319333 12 0.477778 12 0.666667C12 0.855556 11.936 1.014 11.808 1.142C11.6804 1.26956 11.5222 1.33333 11.3333 1.33333H0.666667Z" fill="white"/>
</svg>
