<svg width="20" height="20" viewBox="0 0 20 20" fill="none" xmlns="http://www.w3.org/2000/svg">
<path d="M9.975 17C10.2083 17 10.4125 16.9125 10.5875 16.7375C10.7625 16.5625 10.85 16.3583 10.85 16.125V15.75C11.6833 15.6 12.4 15.275 13 14.775C13.6 14.275 13.9 13.5333 13.9 12.55C13.9 11.85 13.7 11.2083 13.3 10.625C12.9 10.0417 12.1 9.53333 10.9 9.1C9.9 8.76667 9.20833 8.475 8.825 8.225C8.44167 7.975 8.25 7.63333 8.25 7.2C8.25 6.76667 8.40417 6.425 8.7125 6.175C9.02083 5.925 9.46667 5.8 10.05 5.8C10.3833 5.8 10.675 5.85833 10.925 5.975C11.175 6.09167 11.3833 6.25 11.55 6.45C11.7167 6.65 11.9042 6.7875 12.1125 6.8625C12.3208 6.9375 12.5167 6.93333 12.7 6.85C12.95 6.75 13.1208 6.57917 13.2125 6.3375C13.3042 6.09583 13.2833 5.875 13.15 5.675C12.8833 5.29167 12.5542 4.96667 12.1625 4.7C11.7708 4.43333 11.35 4.28333 10.9 4.25V3.875C10.9 3.64167 10.8125 3.4375 10.6375 3.2625C10.4625 3.0875 10.2583 3 10.025 3C9.79167 3 9.5875 3.0875 9.4125 3.2625C9.2375 3.4375 9.15 3.64167 9.15 3.875V4.25C8.31667 4.43333 7.66667 4.8 7.2 5.35C6.73333 5.9 6.5 6.51667 6.5 7.2C6.5 7.98333 6.72917 8.61667 7.1875 9.1C7.64583 9.58333 8.36667 10 9.35 10.35C10.4 10.7333 11.1292 11.075 11.5375 11.375C11.9458 11.675 12.15 12.0667 12.15 12.55C12.15 13.1 11.9542 13.5042 11.5625 13.7625C11.1708 14.0208 10.7 14.15 10.15 14.15C9.71667 14.15 9.325 14.0458 8.975 13.8375C8.625 13.6292 8.33333 13.3167 8.1 12.9C7.96667 12.6667 7.79167 12.5083 7.575 12.425C7.35833 12.3417 7.14167 12.3417 6.925 12.425C6.69167 12.5083 6.52083 12.6667 6.4125 12.9C6.30417 13.1333 6.3 13.3583 6.4 13.575C6.66667 14.1417 7.025 14.6042 7.475 14.9625C7.925 15.3208 8.46667 15.5667 9.1 15.7V16.125C9.1 16.3583 9.1875 16.5625 9.3625 16.7375C9.5375 16.9125 9.74167 17 9.975 17ZM10 20C8.61667 20 7.31667 19.7375 6.1 19.2125C4.88333 18.6875 3.825 17.975 2.925 17.075C2.025 16.175 1.3125 15.1167 0.7875 13.9C0.2625 12.6833 0 11.3833 0 10C0 8.61667 0.2625 7.31667 0.7875 6.1C1.3125 4.88333 2.025 3.825 2.925 2.925C3.825 2.025 4.88333 1.3125 6.1 0.7875C7.31667 0.2625 8.61667 0 10 0C11.3833 0 12.6833 0.2625 13.9 0.7875C15.1167 1.3125 16.175 2.025 17.075 2.925C17.975 3.825 18.6875 4.88333 19.2125 6.1C19.7375 7.31667 20 8.61667 20 10C20 11.3833 19.7375 12.6833 19.2125 13.9C18.6875 15.1167 17.975 16.175 17.075 17.075C16.175 17.975 15.1167 18.6875 13.9 19.2125C12.6833 19.7375 11.3833 20 10 20ZM10 18C12.2167 18 14.1042 17.2208 15.6625 15.6625C17.2208 14.1042 18 12.2167 18 10C18 7.78333 17.2208 5.89583 15.6625 4.3375C14.1042 2.77917 12.2167 2 10 2C7.78333 2 5.89583 2.77917 4.3375 4.3375C2.77917 5.89583 2 7.78333 2 10C2 12.2167 2.77917 14.1042 4.3375 15.6625C5.89583 17.2208 7.78333 18 10 18Z" fill="white"/>
</svg>
