<svg width="17" height="17" viewBox="0 0 17 17" fill="none" xmlns="http://www.w3.org/2000/svg">
<path d="M8.83527 4.9001V10.8001L11.2353 12.6501L10.3353 9.6001L12.5853 8.0001H9.78527L8.83527 4.9001ZM8.83527 13.3001L5.13527 16.1251C4.95193 16.2751 4.75193 16.3459 4.53527 16.3376C4.3186 16.3293 4.12693 16.2668 3.96027 16.1501C3.7936 16.0334 3.66443 15.8751 3.57277 15.6751C3.4811 15.4751 3.47693 15.2584 3.56027 15.0251L4.98527 10.4001L1.36027 7.8251C1.16027 7.69176 1.03527 7.51676 0.985268 7.3001C0.935268 7.08343 0.943601 6.88343 1.01027 6.7001C1.07693 6.51676 1.1936 6.35426 1.36027 6.2126C1.52693 6.07093 1.72693 6.0001 1.96027 6.0001H6.43527L7.88527 1.2001C7.9686 0.966764 8.09777 0.787598 8.27277 0.662598C8.44777 0.537598 8.63527 0.475098 8.83527 0.475098C9.03527 0.475098 9.22277 0.537598 9.39777 0.662598C9.57277 0.787598 9.70193 0.966764 9.78527 1.2001L11.2353 6.0001H15.7103C15.9436 6.0001 16.1436 6.07093 16.3103 6.2126C16.4769 6.35426 16.5936 6.51676 16.6603 6.7001C16.7269 6.88343 16.7353 7.08343 16.6853 7.3001C16.6353 7.51676 16.5103 7.69176 16.3103 7.8251L12.6853 10.4001L14.1103 15.0251C14.1936 15.2584 14.1894 15.4751 14.0978 15.6751C14.0061 15.8751 13.8769 16.0334 13.7103 16.1501C13.5436 16.2668 13.3519 16.3293 13.1353 16.3376C12.9186 16.3459 12.7186 16.2751 12.5353 16.1251L8.83527 13.3001Z" fill="white"/>
</svg>
