<svg width="16" height="19" viewBox="0 0 16 19" fill="none" xmlns="http://www.w3.org/2000/svg">
<path d="M8 19C5.76667 19 3.875 18.225 2.325 16.675C0.775 15.125 0 13.2333 0 11C0 9.11667 0.558333 7.30834 1.675 5.57501C2.79167 3.84167 4.325 2.32501 6.275 1.02501C6.64167 0.775005 7.02083 0.762505 7.4125 0.987505C7.80417 1.21251 8 1.55001 8 2.00001V3.30001C8 3.86667 8.19583 4.34167 8.5875 4.72501C8.97917 5.10834 9.45833 5.30001 10.025 5.30001C10.3083 5.30001 10.5792 5.23751 10.8375 5.11251C11.0958 4.98751 11.325 4.80834 11.525 4.57501C11.6583 4.40834 11.8292 4.30417 12.0375 4.26251C12.2458 4.22084 12.4417 4.26667 12.625 4.40001C13.675 5.15001 14.5 6.10834 15.1 7.27501C15.7 8.44167 16 9.68334 16 11C16 13.2333 15.225 15.125 13.675 16.675C12.125 18.225 10.2333 19 8 19ZM2 11C2 11.8667 2.175 12.6875 2.525 13.4625C2.875 14.2375 3.375 14.9167 4.025 15.5C4.00833 15.4167 4 15.3417 4 15.275V15.05C4 14.5167 4.1 14.0167 4.3 13.55C4.5 13.0833 4.79167 12.6583 5.175 12.275L8 9.50001L10.825 12.275C11.2083 12.6583 11.5 13.0833 11.7 13.55C11.9 14.0167 12 14.5167 12 15.05V15.275C12 15.3417 11.9917 15.4167 11.975 15.5C12.625 14.9167 13.125 14.2375 13.475 13.4625C13.825 12.6875 14 11.8667 14 11C14 10.1667 13.8458 9.37917 13.5375 8.63751C13.2292 7.89584 12.7833 7.23334 12.2 6.65001C11.8667 6.86667 11.5167 7.02917 11.15 7.13751C10.7833 7.24584 10.4083 7.30001 10.025 7.30001C8.99167 7.30001 8.09583 6.95834 7.3375 6.27501C6.57917 5.59167 6.14167 4.75001 6.025 3.75001C4.725 4.85001 3.72917 6.02084 3.0375 7.26251C2.34583 8.50417 2 9.75001 2 11ZM8 12.3L6.575 13.7C6.39167 13.8833 6.25 14.0917 6.15 14.325C6.05 14.5583 6 14.8 6 15.05C6 15.5833 6.19583 16.0417 6.5875 16.425C6.97917 16.8083 7.45 17 8 17C8.55 17 9.02083 16.8083 9.4125 16.425C9.80417 16.0417 10 15.5833 10 15.05C10 14.7833 9.95 14.5375 9.85 14.3125C9.75 14.0875 9.60833 13.8833 9.425 13.7L8 12.3Z" fill="#F5F5F5"/>
</svg>
