<svg width="12" height="13" viewBox="0 0 12 13" fill="none" xmlns="http://www.w3.org/2000/svg">
<path d="M10.6 12.0022L6.86667 8.382C6.53333 8.64058 6.15 8.84529 5.71667 8.99614C5.28333 9.14698 4.82222 9.2224 4.33333 9.2224C3.12222 9.2224 2.09733 8.81577 1.25867 8.00252C0.419556 7.18884 0 6.19479 0 5.02038C0 3.84597 0.419556 2.85192 1.25867 2.03824C2.09733 1.22499 3.12222 0.818359 4.33333 0.818359C5.54444 0.818359 6.56956 1.22499 7.40867 2.03824C8.24733 2.85192 8.66667 3.84597 8.66667 5.02038C8.66667 5.49445 8.58889 5.94159 8.43333 6.36179C8.27778 6.782 8.06667 7.15371 7.8 7.47695L11.55 11.1133C11.6722 11.2318 11.7333 11.3773 11.7333 11.5497C11.7333 11.7221 11.6667 11.8729 11.5333 12.0022C11.4111 12.1207 11.2556 12.18 11.0667 12.18C10.8778 12.18 10.7222 12.1207 10.6 12.0022ZM4.33333 7.92947C5.16667 7.92947 5.87511 7.64675 6.45867 7.08131C7.04178 6.51544 7.33333 5.82846 7.33333 5.02038C7.33333 4.2123 7.04178 3.52532 6.45867 2.95945C5.87511 2.39401 5.16667 2.11129 4.33333 2.11129C3.5 2.11129 2.79156 2.39401 2.208 2.95945C1.62489 3.52532 1.33333 4.2123 1.33333 5.02038C1.33333 5.82846 1.62489 6.51544 2.208 7.08131C2.79156 7.64675 3.5 7.92947 4.33333 7.92947Z" fill="#1C1B1F"/>
</svg>
