<svg width="14" height="14" viewBox="0 0 14 14" fill="none" xmlns="http://www.w3.org/2000/svg">
<path d="M4.66406 13.6668C4.2974 13.6668 3.98362 13.5364 3.72273 13.2755C3.4614 13.0142 3.33073 12.7002 3.33073 12.3335C3.33073 11.9668 3.4614 11.6528 3.72273 11.3915C3.98362 11.1306 4.2974 11.0002 4.66406 11.0002C5.03073 11.0002 5.34451 11.1306 5.6054 11.3915C5.86673 11.6528 5.9974 11.9668 5.9974 12.3335C5.9974 12.7002 5.86673 13.0142 5.6054 13.2755C5.34451 13.5364 5.03073 13.6668 4.66406 13.6668ZM11.3307 13.6668C10.9641 13.6668 10.6503 13.5364 10.3894 13.2755C10.1281 13.0142 9.9974 12.7002 9.9974 12.3335C9.9974 11.9668 10.1281 11.6528 10.3894 11.3915C10.6503 11.1306 10.9641 11.0002 11.3307 11.0002C11.6974 11.0002 12.0114 11.1306 12.2727 11.3915C12.5336 11.6528 12.6641 11.9668 12.6641 12.3335C12.6641 12.7002 12.5336 13.0142 12.2727 13.2755C12.0114 13.5364 11.6974 13.6668 11.3307 13.6668ZM4.0974 3.00016L5.6974 6.3335H10.3641L12.1974 3.00016H4.0974ZM4.66406 10.3335C4.16406 10.3335 3.78628 10.1139 3.53073 9.67483C3.27517 9.23616 3.26406 8.80016 3.4974 8.36683L4.3974 6.7335L1.9974 1.66683H1.31406C1.12517 1.66683 0.969618 1.60283 0.847396 1.47483C0.725174 1.34727 0.664062 1.18905 0.664062 1.00016C0.664062 0.811274 0.728062 0.652829 0.856063 0.524829C0.983618 0.397274 1.14184 0.333496 1.33073 0.333496H2.41406C2.53628 0.333496 2.65295 0.366829 2.76406 0.433496C2.87517 0.500163 2.95851 0.594607 3.01406 0.716829L3.46406 1.66683H13.2974C13.5974 1.66683 13.803 1.77794 13.9141 2.00016C14.0252 2.22238 14.0196 2.45572 13.8974 2.70016L11.5307 6.96683C11.4085 7.18905 11.2474 7.36127 11.0474 7.4835C10.8474 7.60572 10.6196 7.66683 10.3641 7.66683H5.3974L4.66406 9.00016H12.0141C12.203 9.00016 12.3585 9.06394 12.4807 9.19149C12.603 9.3195 12.6641 9.47794 12.6641 9.66683C12.6641 9.85572 12.6001 10.0139 12.4721 10.1415C12.3445 10.2695 12.1863 10.3335 11.9974 10.3335H4.66406Z" fill="white"/>
</svg>
