<svg width="151" height="151" viewBox="0 0 151 151" fill="none" xmlns="http://www.w3.org/2000/svg">
<path d="M54.2218 4.26275C55.0792 2.86135 56.8844 2.37765 58.3275 3.16264L66.6247 7.67576C67.7482 8.28686 69.1322 8.14139 70.1041 7.31006L77.2817 1.17048C78.5301 0.102588 80.3964 0.200394 81.5263 1.39293L88.0228 8.24913C88.9025 9.1775 90.2637 9.46684 91.4449 8.97653L100.168 5.35542C101.686 4.72559 103.43 5.39533 104.137 6.87867L108.196 15.4068C108.746 16.5616 109.951 17.2574 111.226 17.1561L120.642 16.4079C122.279 16.2778 123.732 17.4539 123.945 19.0829L125.171 28.4482C125.337 29.7163 126.268 30.7505 127.512 31.0481L136.698 33.2461C138.295 33.6284 139.313 35.1958 139.013 36.8109L137.284 46.0966C137.05 47.354 137.616 48.6253 138.707 49.2927L146.764 54.2217C148.166 55.0791 148.65 56.8843 147.865 58.3274L143.351 66.6246C142.74 67.7481 142.886 69.1321 143.717 70.104L149.857 77.2816C150.925 78.53 150.827 80.3963 149.634 81.5262L142.778 88.0227C141.85 88.9024 141.56 90.2636 142.051 91.4448L145.672 100.168C146.302 101.686 145.632 103.43 144.149 104.137L135.62 108.196C134.466 108.746 133.77 109.951 133.871 111.226L134.619 120.642C134.749 122.279 133.573 123.732 131.944 123.945L122.579 125.171C121.311 125.337 120.277 126.268 119.979 127.512L117.781 136.698C117.399 138.295 115.831 139.313 114.216 139.013L104.931 137.284C103.673 137.05 102.402 137.616 101.735 138.707L96.8055 146.764C95.9482 148.166 94.143 148.65 92.6998 147.865L84.4026 143.351C83.2791 142.74 81.8951 142.886 80.9232 143.717L73.7457 149.857C72.4973 150.925 70.631 150.827 69.501 149.634L63.0045 142.778C62.1249 141.85 60.7636 141.56 59.5824 142.051L50.8589 145.672C49.3416 146.302 47.5969 145.632 46.8907 144.148L42.8309 135.62C42.2812 134.466 41.076 133.77 39.8011 133.871L30.3856 134.619C28.7479 134.749 27.2955 133.573 27.0823 131.944L25.8565 122.579C25.6905 121.311 24.7593 120.277 23.5155 119.979L14.3296 117.781C12.7319 117.399 11.714 115.831 12.0146 114.216L13.7429 104.931C13.9769 103.673 13.4109 102.402 12.3199 101.734L4.26284 96.8054C2.86144 95.9481 2.37774 94.1429 3.16273 92.6997L7.67585 84.4025C8.28695 83.2791 8.14148 81.895 7.31015 80.9231L1.17057 73.7456C0.102678 72.4972 0.200484 70.6309 1.39302 69.5009L8.24922 63.0044C9.17759 62.1248 9.46693 60.7635 8.97662 59.5823L5.35551 50.8588C4.72568 49.3415 5.39542 47.5968 6.87876 46.8906L15.4069 42.8308C16.5617 42.2811 17.2575 41.0759 17.1562 39.801L16.408 30.3855C16.2779 28.7478 17.454 27.2954 19.083 27.0822L28.4483 25.8564C29.7164 25.6904 30.7506 24.7592 31.0482 23.5154L33.2462 14.3296C33.6285 12.7318 35.1959 11.7139 36.811 12.0146L46.0967 13.7428C47.3541 13.9768 48.6254 13.4108 49.2928 12.3198L54.2218 4.26275Z" fill="#FF9B3E"/>
</svg>
