<svg width="23" height="22" viewBox="0 0 23 22" fill="none" xmlns="http://www.w3.org/2000/svg">
<path d="M10.713 0.927049C11.0124 0.0057385 12.3158 0.00573993 12.6151 0.927051L14.5827 6.98278C14.7166 7.3948 15.1006 7.67376 15.5338 7.67376H21.9012C22.8699 7.67376 23.2727 8.91338 22.489 9.48278L17.3376 13.2254C16.9872 13.4801 16.8405 13.9314 16.9744 14.3435L18.942 20.3992C19.2414 21.3205 18.1869 22.0866 17.4032 21.5172L12.2518 17.7746C11.9014 17.5199 11.4268 17.5199 11.0763 17.7746L5.92496 21.5172C5.14125 22.0866 4.08677 21.3205 4.38613 20.3992L6.35375 14.3435C6.48763 13.9314 6.34097 13.4801 5.99048 13.2254L0.839168 9.48278C0.0554543 8.91338 0.458231 7.67376 1.42695 7.67376H7.79432C8.22755 7.67376 8.61151 7.3948 8.74538 6.98278L10.713 0.927049Z" fill="#FF9B3E"/>
</svg>
