<svg width="37" height="36" viewBox="0 0 37 36" fill="none" xmlns="http://www.w3.org/2000/svg">
<path d="M31.8307 22V27H36.8307V30.3333H31.8307V35.3333H28.4974V30.3333H23.4974V27H28.4974V22H31.8307ZM36.8307 13.6666L36.7641 14.15L35.1641 20C33.643 19.1247 31.9185 18.6648 30.1636 18.6663C28.4086 18.6679 26.685 19.1308 25.1654 20.0088C23.6459 20.8867 22.3839 22.1488 21.5061 23.6684C20.6283 25.188 20.1655 26.9117 20.1641 28.6666C20.1641 29.8333 20.3807 30.95 20.7474 32H7.66406C6.36406 32 5.23073 31.25 4.68073 30.1666L0.330729 14.4L0.164062 13.6666C0.164062 12.75 0.914062 12 1.83073 12H9.46406L17.1307 1.04997C17.2844 0.826423 17.4904 0.643899 17.7309 0.518333C17.9713 0.392767 18.2389 0.327976 18.5101 0.32962C18.7814 0.331264 19.0481 0.399292 19.287 0.527764C19.526 0.656235 19.7298 0.841244 19.8807 1.06663L27.5307 12H35.1641C36.0807 12 36.8307 12.75 36.8307 13.6666ZM21.8307 22C21.8307 20.1666 20.3474 18.6666 18.4974 18.6666C16.6474 18.6666 15.1641 20.1666 15.1641 22C15.1641 23.8333 16.6641 25.3333 18.4974 25.3333C20.3307 25.3333 21.8307 23.85 21.8307 22ZM23.4974 12L18.4974 4.89996L13.4974 12H23.4974Z" fill="#F8F8F8"/>
</svg>
